<svg fill="none" viewBox="0 0 146 54" xmlns="http://www.w3.org/2000/svg">
<g clip-path="url(#clip0_901_540)">
<path d="M143.771 24.4504H142.406L143.088 22.3559L143.771 24.4504ZM145.819 26.1806V25.9984H145.227C145.182 25.9984 145.182 25.9984 145.182 25.9984L143.498 21.1721C143.498 21.1721 143.361 21.1721 143.316 21.1721L141.768 25.7252C141.677 25.9984 141.677 25.9984 141.586 25.9984H141.086V26.1806H142.406V25.9984H141.859C141.814 25.9984 141.859 25.9529 141.905 25.7252L142.269 24.6325H143.725L144.181 26.044C144.181 26.044 144.181 26.044 144.135 26.044H143.589V26.2261H145.819V26.1806ZM140.585 26.135V24.4959H140.449C140.449 25.2244 140.039 25.9984 139.038 25.9984H138.537C138.537 25.9984 138.492 25.9984 138.492 25.9529V21.3998C138.492 21.3998 138.492 21.3542 138.537 21.3542H139.129V21.1721H136.99V21.3542H137.581C137.581 21.3542 137.627 21.3542 137.627 21.3998V25.9529C137.627 25.9529 137.627 25.9984 137.581 25.9984H136.99V26.1806L140.585 26.135C140.585 26.1806 140.585 26.1806 140.585 26.135ZM136.216 26.135V24.4959H136.08C136.08 25.2244 135.67 25.9984 134.669 25.9984H134.168C134.168 25.9984 134.123 25.9984 134.123 25.9529V21.3998C134.123 21.3998 134.123 21.3542 134.168 21.3542H134.714V21.1721H132.621V21.3542H133.212C133.212 21.3542 133.258 21.3542 133.258 21.3998V25.9529C133.258 25.9529 133.258 25.9984 133.212 25.9984H132.621V26.1806L136.216 26.135C136.216 26.1806 136.216 26.1806 136.216 26.135ZM131.847 26.135V24.587H131.71C131.71 25.3155 131.301 25.9984 130.254 25.9984H129.617C129.571 25.9984 129.571 25.9984 129.571 25.9529V23.7219H129.708C130.209 23.7219 130.482 24.1316 130.482 24.587H130.618V22.6746H130.482C130.482 23.1755 130.209 23.5397 129.708 23.5397H129.571V21.3998C129.571 21.3998 129.571 21.3542 129.617 21.3542H130.209C131.028 21.3542 131.346 21.9917 131.346 22.6291H131.528V21.1721C131.528 21.1721 131.528 21.1721 131.483 21.1721H128.07V21.3542H128.661C128.661 21.3542 128.707 21.3542 128.707 21.3998V25.9529C128.707 25.9529 128.707 25.9984 128.661 25.9984H128.07V26.1806L131.847 26.135C131.801 26.1806 131.847 26.1806 131.847 26.135ZM126.477 23.7219C126.477 24.9967 126.34 25.4521 126.067 25.7708C125.885 25.9529 125.657 25.9984 125.384 25.9984H124.838C124.793 25.9984 124.793 25.9984 124.793 25.9984V21.4453C124.793 21.4453 124.793 21.3998 124.838 21.3998H125.384C125.657 21.3998 125.885 21.4453 126.067 21.6274C126.34 21.9461 126.477 22.6291 126.477 23.7219ZM127.432 23.7219C127.432 22.3559 126.477 21.2632 125.339 21.2632H123.291V21.4453H123.883C123.883 21.4453 123.928 21.4453 123.928 21.4908V26.044C123.928 26.044 123.928 26.0895 123.883 26.0895H123.291V26.2716H125.339C126.477 26.1806 127.432 25.0878 127.432 23.7219ZM120.196 26.1806V25.9984H119.604C119.559 25.9984 119.559 25.9984 119.559 25.9529V21.3998C119.559 21.3998 119.559 21.3542 119.604 21.3542H120.196V21.1721H118.103V21.3542H118.649C118.649 21.3542 118.694 21.3542 118.694 21.3998V25.9529C118.694 25.9529 118.694 25.9984 118.649 25.9984H118.103V26.1806H120.196ZM116.237 23.7219C116.237 24.9967 116.1 25.4521 115.827 25.7708C115.645 25.9529 115.417 25.9984 115.144 25.9984H114.598C114.553 25.9984 114.553 25.9984 114.553 25.9984V21.4453C114.553 21.4453 114.553 21.3998 114.598 21.3998H115.144C115.417 21.3998 115.645 21.4453 115.827 21.6274C116.1 21.9461 116.237 22.6291 116.237 23.7219ZM117.192 23.7219C117.192 22.3559 116.237 21.2632 115.099 21.2632H113.051V21.4453H113.597C113.597 21.4453 113.642 21.4453 113.642 21.4908V26.044C113.642 26.044 113.643 26.0895 113.597 26.0895H113.051V26.2716H115.099C116.237 26.1806 117.192 25.0878 117.192 23.7219ZM112.323 21.3998V21.2176H110.957V21.3998H111.503C111.549 21.3998 111.549 21.3998 111.549 21.4453V24.7236C111.549 25.5431 111.185 26.0895 110.32 26.0895C109.638 26.0895 109.364 25.6797 109.364 24.8146V21.4908C109.364 21.4908 109.364 21.4453 109.41 21.4453H109.956V21.2632H107.863V21.4453H108.409C108.409 21.4453 108.454 21.4453 108.454 21.4908V24.8146C108.454 25.8618 109.137 26.3171 110.093 26.3171C111.185 26.3171 111.64 25.6797 111.64 24.7236V21.4453C111.64 21.4453 111.64 21.3998 111.686 21.3998H112.323ZM107.316 22.9023V21.2632H103.402V22.9023H103.539C103.539 22.0827 103.903 21.3998 104.859 21.3998H104.904C104.95 21.3998 104.95 21.3998 104.95 21.4453V25.9984C104.95 25.9984 104.95 26.044 104.904 26.044H104.358V26.2261H106.452V26.044H105.906C105.86 26.044 105.86 26.044 105.86 25.9984V21.4453C105.86 21.4453 105.86 21.3998 105.906 21.3998H105.951C106.907 21.3998 107.271 22.0827 107.271 22.9023C107.18 22.9478 107.316 22.9478 107.316 22.9023ZM102.674 24.6325C102.674 23.7674 102.128 23.4487 101.309 23.13C100.49 22.8112 100.171 22.5836 100.171 22.0827C100.171 21.6274 100.49 21.2632 100.99 21.2632C101.582 21.2632 101.992 21.764 101.992 22.4015H102.128V21.1266H101.992C101.992 21.2176 101.901 21.3087 101.719 21.3087C101.4 21.3087 101.4 21.1266 100.945 21.1266C100.308 21.1266 99.7161 21.764 99.7161 22.6746C99.7161 23.4942 100.171 23.8585 100.808 24.0861C101.81 24.4959 102.219 24.587 102.219 25.2244C102.219 25.6797 101.901 26.135 101.172 26.135C100.353 26.135 99.8071 25.1789 99.8071 24.587H99.6706V26.2716H99.8071C99.8071 26.135 99.9891 25.9984 100.171 25.9984C100.399 25.9984 100.717 26.2716 101.218 26.2716C102.174 26.2716 102.674 25.4065 102.674 24.6325ZM96.4393 26.1806V25.9984H95.8476C95.8021 25.9984 95.8021 25.9984 95.8021 25.9529V21.3998C95.8021 21.3998 95.8021 21.3542 95.8476 21.3542H96.4393V21.1721H94.3457V21.3542H94.8919C94.8919 21.3542 94.9374 21.3542 94.9374 21.3998V25.9529C94.9374 25.9529 94.9374 25.9984 94.8919 25.9984H94.3457V26.1806H96.4393ZM93.6176 26.135V24.4959H93.481C93.481 25.2244 93.0714 25.9984 92.0702 25.9984H91.5696C91.5696 25.9984 91.524 25.9984 91.524 25.9529V21.3998C91.524 21.3998 91.524 21.3542 91.5696 21.3542H92.1157V21.1721H90.0222V21.3542H90.6138C90.6138 21.3542 90.6593 21.3542 90.6593 21.3998V25.9529C90.6593 25.9529 90.6593 25.9984 90.6138 25.9984H90.0222V26.1806L93.6176 26.135C93.572 26.1806 93.6176 26.1806 93.6176 26.135ZM89.5671 24.3138V24.1316H87.4735V24.3138H88.0652C88.1107 24.3138 88.1107 24.3138 88.1107 24.3138V25.4976C88.1107 25.8618 87.8831 26.0895 87.2915 26.0895C87.0184 26.0895 86.7454 26.044 86.5633 25.8163C86.2447 25.4976 86.1992 24.9057 86.1992 23.6763C86.1992 22.5381 86.3358 21.8096 86.6088 21.4908C86.7909 21.3087 87.0184 21.2632 87.337 21.2632C88.0197 21.2632 88.4748 22.0372 88.4748 22.7202H88.6113V21.0811H88.4748C88.4748 21.1721 88.3383 21.2632 88.1562 21.2632C87.9742 21.2632 87.7466 21.0811 87.337 21.0811C86.1082 21.0811 85.2435 22.2649 85.2435 23.6763C85.2435 24.9967 86.0172 26.2716 87.246 26.2716C87.9742 26.2716 88.2472 25.9074 88.5658 25.9074C88.7479 25.9074 88.7479 25.9984 88.7479 26.135H88.9299V24.2682C88.9299 24.2682 88.9299 24.2682 88.9754 24.2682H89.5671V24.3138ZM84.4243 26.135V24.587H84.2878C84.2878 25.3155 83.8782 25.9984 82.8314 25.9984H82.1942C82.1487 25.9984 82.1487 25.9984 82.1487 25.9529V23.7219H82.2853C82.7859 23.7219 83.059 24.1316 83.059 24.587H83.1955V22.6746H83.059C83.059 23.1755 82.7859 23.5397 82.2853 23.5397H82.1487V21.3998C82.1487 21.3998 82.1487 21.3542 82.1942 21.3542H82.7859C83.6051 21.3542 83.9237 21.9917 83.9237 22.6291H84.1057V21.1721C84.1057 21.1721 84.1057 21.1721 84.0602 21.1721H80.6469V21.3542H81.2385C81.2385 21.3542 81.284 21.3542 81.284 21.3998V25.9529C81.284 25.9529 81.284 25.9984 81.2385 25.9984H80.6469V26.1806L84.4243 26.135C84.4243 26.1806 84.4243 26.1806 84.4243 26.135ZM78.8264 23.7219C78.8264 24.9967 78.6899 25.4521 78.4168 25.7708C78.2348 25.9529 78.0072 25.9984 77.7341 25.9984H77.188C77.1425 25.9984 77.1425 25.9984 77.1425 25.9984V21.4453C77.1425 21.4453 77.1425 21.3998 77.188 21.3998H77.7341C78.0072 21.3998 78.2348 21.4453 78.4168 21.6274C78.6899 21.9461 78.8264 22.6291 78.8264 23.7219ZM79.7821 23.7219C79.7821 22.3559 78.8264 21.2632 77.6886 21.2632H75.6406V21.4453H76.2323C76.2323 21.4453 76.2778 21.4453 76.2778 21.4908V26.044C76.2778 26.044 76.2778 26.0895 76.2323 26.0895H75.6406V26.2716H77.6886C78.8264 26.1806 79.7821 25.0878 79.7821 23.7219Z" fill="white"></path>
<path d="M141.086 12.9762H137.855L139.493 8.01333L141.086 12.9762ZM145.956 17.074C146.001 17.074 146.001 16.6643 145.956 16.6643H144.59C144.545 16.6643 144.454 16.6187 144.454 16.6187L140.494 5.1904C140.494 5.14487 140.13 5.14487 140.13 5.1904L136.489 15.9813C136.307 16.6187 136.262 16.6643 136.125 16.6643H134.897C134.851 16.6643 134.851 17.074 134.897 17.074H137.991C138.037 17.074 138.037 16.6643 137.991 16.6643H136.717C136.672 16.6643 136.672 16.5732 136.854 15.9813L137.718 13.3405H141.177L142.224 16.6187C142.224 16.6187 142.224 16.6643 142.178 16.6643H140.859C140.813 16.6643 140.813 17.074 140.859 17.074H145.956ZM135.67 9.37927V5.50912C135.67 5.50912 135.67 5.46359 135.625 5.46359H126.34C126.295 5.46359 126.295 5.50912 126.295 5.50912V9.37927C126.295 9.4248 126.659 9.4248 126.659 9.37927C126.659 7.46696 127.524 5.82784 129.708 5.82784H129.845C129.89 5.82784 129.936 5.82784 129.936 5.87337V16.5732C129.936 16.6187 129.89 16.6187 129.845 16.6187H128.525C128.479 16.6187 128.479 17.0285 128.525 17.0285H133.44C133.486 17.0285 133.486 16.6187 133.44 16.6187H132.12C132.075 16.6187 132.029 16.6187 132.029 16.5732V5.9189C132.029 5.87337 132.075 5.87337 132.12 5.87337H132.211C134.441 5.87337 135.352 7.51249 135.352 9.4248C135.306 9.4248 135.67 9.4248 135.67 9.37927ZM125.112 17.074C125.157 17.074 125.157 16.6643 125.112 16.6643H123.746C123.701 16.6643 123.655 16.6643 123.655 16.6187V5.9189C123.655 5.87337 123.701 5.87337 123.746 5.87337H125.112C125.157 5.87337 125.157 5.46359 125.112 5.46359H120.151V5.87337H121.516C121.562 5.87337 121.607 5.87337 121.607 5.9189V16.6187C121.607 16.6643 121.562 16.6643 121.516 16.6643H120.151V17.074H125.112ZM118.877 13.4771C118.877 11.4737 117.648 10.7452 115.691 9.97117C113.779 9.24268 112.96 8.74183 112.96 7.55802C112.96 6.46527 113.734 5.60018 114.963 5.60018C116.328 5.60018 117.375 6.73846 117.375 8.28652C117.375 8.33205 117.739 8.33205 117.739 8.28652V5.23593C117.739 5.1904 117.375 5.1904 117.375 5.23593C117.329 5.41805 117.193 5.64571 116.738 5.64571C116.055 5.64571 116.009 5.1904 114.963 5.1904C113.415 5.1904 112.05 6.73846 112.05 8.83289C112.05 10.7907 113.142 11.6103 114.599 12.1567C116.92 13.0673 117.875 13.295 117.875 14.8885C117.875 15.9358 117.102 17.0285 115.372 17.0285C113.415 17.0285 112.095 14.752 112.095 13.4315C112.095 13.386 111.731 13.386 111.731 13.4315V17.3017C111.731 17.3472 112.05 17.3472 112.095 17.3017C112.141 17.0285 112.505 16.6643 112.915 16.6643C113.415 16.6643 114.234 17.3472 115.372 17.3472C117.739 17.3472 118.877 15.2073 118.877 13.4771ZM106.68 8.37758C106.68 10.472 106.361 10.8363 104.859 10.8363H103.903V5.9189C103.903 5.87337 103.949 5.87337 103.994 5.87337H104.768C106.179 5.82784 106.68 6.32868 106.68 8.37758ZM111.094 16.7553C111.14 16.7553 110.867 16.4821 110.867 16.4821C110.639 16.7098 110.503 16.7553 110.093 16.7553C109.547 16.7553 109.183 16.4821 109.183 15.6626V14.2056C109.183 12.5209 108.136 11.0184 105.906 11.0184C107.408 11.0184 108.728 9.83458 108.728 8.28652C108.728 6.69293 107.362 5.41805 105.087 5.41805H100.354C100.308 5.41805 100.308 5.82784 100.354 5.82784H101.719C101.764 5.82784 101.764 5.82784 101.764 5.87337V16.5732C101.764 16.6187 101.719 16.6187 101.719 16.6187H100.354C100.308 16.6187 100.308 17.0285 100.354 17.0285H105.269V16.6187H103.949C103.903 16.6187 103.858 16.6187 103.858 16.5732V11.2005H104.814C106.224 11.2005 107.044 11.6558 107.044 13.0673V14.1145C107.044 16.4366 108.409 17.3017 109.683 17.3017C110.366 17.3472 110.821 17.1196 111.094 16.7553ZM99.2613 17.0285V13.295C99.2613 13.2494 98.8972 13.2494 98.8972 13.295C98.8972 14.9796 97.987 16.6643 95.4838 16.6643H93.982C93.891 16.6643 93.8454 16.6643 93.8454 16.6187V11.2916H94.2095C95.4383 11.2916 96.0755 12.2477 96.0755 13.3405C96.0755 13.386 96.4396 13.386 96.4396 13.3405V8.83289C96.4396 8.78736 96.0755 8.78736 96.0755 8.83289C96.0755 9.97117 95.4383 10.8818 94.2095 10.8818H93.8454V5.9189C93.8454 5.87337 93.891 5.87337 93.982 5.87337H95.4383C97.3498 5.87337 98.1235 7.3759 98.1235 8.92396H98.4876V5.50912C98.4876 5.50912 98.4876 5.46359 98.4421 5.46359H90.4321C90.3866 5.46359 90.3866 5.87337 90.4321 5.87337H91.7974C91.8429 5.87337 91.8885 5.87337 91.8885 5.9189V16.6187C91.8885 16.6643 91.8429 16.6643 91.7974 16.6643H90.4321C90.3866 16.6643 90.3866 17.074 90.4321 17.074H99.2158C99.2158 17.074 99.2613 17.074 99.2613 17.0285ZM90.0225 5.82784C90.068 5.82784 90.068 5.41805 90.0225 5.41805H86.7457V5.82784H88.0655C88.1565 5.82784 88.2021 5.87337 87.9745 6.5108L85.4259 14.4332L82.1491 5.9189C82.1491 5.87337 82.1491 5.87337 82.2401 5.87337H83.6964C83.7419 5.87337 83.7419 5.46359 83.6964 5.46359H78.3261C78.2806 5.46359 78.2806 5.87337 78.3261 5.87337H79.7825C79.8735 5.87337 79.919 5.87337 79.919 5.9189L84.4701 17.3472C84.4701 17.3928 84.8342 17.3928 84.8342 17.3472L88.2931 6.55633C88.5206 5.9189 88.5206 5.87337 88.6572 5.87337H90.0225V5.82784ZM77.5979 17.074C77.6434 17.074 77.6434 16.6643 77.5979 16.6643H76.2326C76.1871 16.6643 76.1416 16.6643 76.1416 16.6187V5.9189C76.1416 5.87337 76.1871 5.87337 76.2326 5.87337H77.5979C77.6434 5.87337 77.6434 5.46359 77.5979 5.46359H72.6372V5.87337H74.0026C74.0481 5.87337 74.0936 5.87337 74.0936 5.9189V16.6187C74.0936 16.6643 74.0481 16.6643 74.0026 16.6643H72.6372V17.074H77.5979ZM71.5905 5.82784V5.41805H68.3592C68.3136 5.41805 68.3136 5.82784 68.3592 5.82784H69.679C69.7245 5.82784 69.77 5.82784 69.77 5.87337V13.4315L65.1279 5.69124C64.9913 5.46359 64.9003 5.41805 64.7638 5.41805H61.1229C61.0774 5.41805 61.0774 5.82784 61.1229 5.82784H62.4427C62.5337 5.82784 62.5337 5.82784 62.5337 5.87337V16.5732C62.5337 16.6187 62.5337 16.6187 62.4427 16.6187H61.1229C61.0774 16.6187 61.0774 17.0285 61.1229 17.0285H64.3542C64.3997 17.0285 64.3997 16.6187 64.3542 16.6187H62.9888C62.9433 16.6187 62.9433 16.6187 62.9433 16.5732V6.10102L69.77 17.3017C69.8155 17.3472 70.1341 17.3472 70.1341 17.3017V5.9189C70.1341 5.87337 70.1796 5.87337 70.2251 5.87337H71.5905V5.82784ZM60.1671 5.82784C60.2126 5.82784 60.2126 5.41805 60.1671 5.41805H56.9814C56.9358 5.41805 56.9358 5.82784 56.9814 5.82784H58.2557C58.3012 5.82784 58.3467 5.82784 58.3467 5.87337V13.6137C58.3467 15.526 57.482 16.8009 55.434 16.8009C53.8411 16.8009 53.2039 15.7992 53.2039 13.7958V5.9189C53.2039 5.87337 53.2494 5.87337 53.3405 5.87337H54.6603C54.7058 5.87337 54.7058 5.46359 54.6603 5.46359H49.7451C49.6996 5.46359 49.6996 5.87337 49.7451 5.87337H51.1104C51.1559 5.87337 51.2014 5.87337 51.2014 5.9189V13.7958C51.2014 16.2545 52.8398 17.3472 55.1154 17.3472C57.664 17.3472 58.8018 15.8902 58.8018 13.6137V5.9189C58.8018 5.87337 58.8473 5.87337 58.8473 5.87337H60.1671V5.82784Z" fill="white"></path>
<path d="M138.582 41.9345H133.121L135.852 33.6933L138.582 41.9345ZM145.864 48.3544C145.909 48.3544 145.909 47.8535 145.864 47.8535H143.77C143.679 47.8535 143.588 47.808 143.543 47.7625L137.217 29.6866C137.171 29.5955 136.762 29.5955 136.762 29.6866L131.027 46.7608C130.709 47.7625 130.663 47.8535 130.481 47.8535H128.57C128.524 47.8535 128.524 48.3544 128.57 48.3544H133.348C133.439 48.3544 133.439 47.8535 133.348 47.8535H131.3C131.164 47.8535 131.209 47.7169 131.482 46.7608L132.939 42.4353H138.719L140.494 47.7625C140.539 47.808 140.448 47.8535 140.403 47.8535H138.264C138.218 47.8535 138.218 48.3544 138.264 48.3544H145.864ZM127.159 48.3544C127.204 48.3544 127.204 47.8535 127.159 47.8535H125.02C124.929 47.8535 124.883 47.808 124.883 47.7625V30.6883C124.883 30.5972 124.929 30.5972 125.02 30.5972H127.159C127.204 30.5972 127.204 30.0964 127.159 30.0964H119.786C119.741 30.0964 119.741 30.5972 119.786 30.5972H121.88C121.971 30.5972 122.016 30.5972 122.016 30.6883V47.7625C122.016 47.8535 121.925 47.8535 121.88 47.8535H119.786C119.741 47.8535 119.741 48.3544 119.786 48.3544H127.159ZM117.328 48.7641V42.5264C117.328 42.4808 116.873 42.4808 116.873 42.5264C116.873 45.8957 114.598 48.3544 111.64 48.3544C110.547 48.3544 109.41 48.1267 108.636 47.3982C107.407 46.1689 106.77 43.6647 106.77 39.2481C106.77 34.8771 107.407 32.2819 108.636 31.098C109.455 30.3695 110.456 30.1419 111.549 30.1419C113.915 30.1419 116.418 32.8738 116.418 35.4235C116.418 35.469 116.873 35.469 116.873 35.4235V29.7321C116.873 29.6866 116.418 29.6866 116.418 29.7321C116.373 30.0053 115.918 30.3695 115.189 30.3695C114.097 30.3695 112.732 29.6866 111.549 29.6866C107.043 29.6866 103.766 34.1486 103.766 39.2937C103.766 44.3932 107.134 48.8552 111.64 48.8552C113.005 48.8552 114.643 48.0357 115.781 48.0357C116.464 48.0357 116.828 48.491 116.873 48.8097C116.919 48.8097 117.328 48.8097 117.328 48.7641ZM101.309 43.0272C101.309 39.8856 99.3515 38.6562 96.2568 37.4724C93.253 36.2886 91.8877 35.2869 91.8877 33.4201C91.8877 31.6444 93.2985 30.1419 95.119 30.1419C97.1215 30.1419 98.8964 31.6899 98.8964 34.1486C98.8964 34.1942 99.3515 34.1942 99.3515 34.1486V29.6866C99.3515 29.5955 98.8964 29.5955 98.8964 29.6866C98.8509 29.9598 98.6233 30.324 97.8952 30.324C97.0304 30.324 96.7119 29.641 95.0735 29.641C92.6614 29.641 90.6134 32.0997 90.6134 35.1048C90.6134 38.1554 92.3883 39.4303 94.6183 40.3409C98.3048 41.7523 99.8521 42.3443 99.8521 44.8029C99.8521 46.4876 98.4413 48.3544 95.7106 48.3544C92.6614 48.3544 90.6134 44.9851 90.6134 42.8906C90.6134 42.8451 90.1583 42.8451 90.1583 42.8906V48.7186C90.1583 48.8097 90.6134 48.8097 90.6134 48.7186C90.7044 48.2633 91.2505 47.7169 91.9332 47.7169C92.7524 47.7169 93.7992 48.7641 95.7106 48.7641C99.5336 48.8097 101.309 45.4404 101.309 43.0272ZM88.9294 30.5972C88.975 30.5972 88.975 30.0964 88.9294 30.0964H84.1963C84.1508 30.0964 84.1508 30.5972 84.1963 30.5972H86.0622C86.1533 30.5972 86.1988 30.5972 86.1988 30.6883V42.9362C86.1988 45.9867 84.7879 48.0812 81.5566 48.0812C78.9625 48.0812 77.5972 46.5787 77.5972 43.0727V30.6883C77.5972 30.5972 77.6427 30.5972 77.7792 30.5972H79.8727C79.9182 30.5972 79.9182 30.0964 79.8727 30.0964H72.5909C72.5454 30.0964 72.5454 30.5972 72.5909 30.5972H74.6844C74.7755 30.5972 74.821 30.5972 74.821 30.6883V43.0727C74.821 46.8974 77.3696 48.8097 80.965 48.8097C84.97 48.8097 86.7449 46.5331 86.7449 42.9362V30.6883C86.7449 30.5972 86.7904 30.5972 86.8359 30.5972H88.9294ZM70.816 29.2768V21.3088C70.816 21.2633 70.816 21.2178 70.725 21.2178H50.427C50.3359 21.2178 50.3359 21.3088 50.3359 21.3088V29.2768C50.3359 29.3679 50.8366 29.3679 50.8366 29.2768C50.8366 24.9969 52.7025 21.8097 57.7998 21.8097H58.2549C58.3914 21.8097 58.4824 21.8552 58.4824 21.9463V47.6714C58.4824 47.7625 58.3914 47.808 58.2549 47.808H55.2056C55.1146 47.808 55.1146 48.3999 55.2056 48.3999H65.7642C65.8553 48.3999 65.8553 47.808 65.7642 47.808H62.715C62.5785 47.808 62.4874 47.7625 62.4874 47.6714V21.9463C62.4874 21.8552 62.5785 21.8097 62.715 21.8097H63.1701C68.2674 21.8097 70.3609 24.9969 70.3609 29.2768C70.3609 29.3223 70.816 29.3223 70.816 29.2768Z" fill="white"></path>
<path d="M141.083 3.91571C138.625 3.36933 138.625 1.09277 137.67 1.09277C137.306 1.09277 137.078 1.36596 137.078 1.68468C137.078 2.45871 137.761 3.55146 141.083 4.32549C141.083 4.27996 141.083 3.91571 141.083 3.91571Z" fill="white"></path>
<path d="M26.9871 3.91542C27.1691 3.23245 27.6698 2.95926 28.0339 3.05032C28.3979 3.14139 28.7165 3.64223 28.5345 4.3252C28.3524 5.00817 27.8518 5.28135 27.4877 5.19029C27.1236 5.09923 26.8051 4.59839 26.9871 3.91542ZM27.3512 5.7822C27.8973 5.91879 28.671 5.55454 28.9441 4.46179C29.2627 3.36904 28.7165 2.64054 28.2159 2.50395C27.6698 2.36736 26.8961 2.73161 26.623 3.82435C26.3044 4.9171 26.8051 5.60007 27.3512 5.7822Z" fill="white"></path>
<path d="M30.7659 4.09764L31.3576 4.37083C31.6762 4.55295 31.6762 4.78061 31.5851 5.00826C31.4486 5.23592 31.2666 5.37251 30.948 5.19039L30.3563 4.9172L30.7659 4.09764ZM29.6282 6.60186L29.6737 6.51079C29.5827 6.46526 29.5827 6.41973 29.6282 6.3742L30.1288 5.37251L30.6294 5.60017L30.5384 6.64739C30.5384 6.73845 30.5384 6.78398 30.4929 6.82951C30.4929 6.87504 30.4474 6.87504 30.4019 6.87504L30.3563 6.96611L30.9935 7.28482L31.039 7.19376C30.9935 7.19376 30.948 7.14823 30.948 7.05717L31.039 5.78229C31.3576 5.82783 31.6762 5.69123 31.9492 5.19039C32.2678 4.55295 32.1313 4.1887 31.6762 3.96105L30.5384 3.36914L30.4929 3.4602C30.5384 3.50573 30.5839 3.55127 30.5384 3.5968L29.2641 6.14654C29.2186 6.19207 29.1731 6.23761 29.1275 6.19208L29.082 6.28314L29.6282 6.60186Z" fill="white"></path>
<path d="M32.2647 6.64755C31.6275 7.42158 31.7186 7.83136 32.2647 8.28667C32.7653 8.69645 33.2204 8.69645 33.8576 7.92242L35.0409 6.46542C35.0864 6.41989 35.1319 6.41989 35.1774 6.41989L35.2684 6.32883L34.8133 5.96458L34.7223 6.05564C34.7678 6.10117 34.7678 6.1467 34.7223 6.23776L33.539 7.69476C33.2204 8.10454 32.9474 8.10454 32.6288 7.87689C32.3102 7.64923 32.2647 7.37604 32.5833 6.96626L33.7666 5.50927C33.8121 5.46373 33.8576 5.46373 33.9031 5.46373L33.9941 5.37267L33.4935 4.96289L33.4025 5.05395C33.448 5.09948 33.448 5.14502 33.4025 5.19055L32.2647 6.64755Z" fill="white"></path>
<path d="M33.7666 9.28816C33.7211 9.33369 33.6756 9.33369 33.6301 9.28816L33.5391 9.37922L33.9032 9.83454L33.9942 9.74347C33.9487 9.69794 33.9487 9.65241 33.9942 9.60688L35.5871 8.24094L34.2672 10.2898L36.5428 9.37922L34.9499 10.6996C34.9044 10.7452 34.8589 10.7452 34.8134 10.6996L34.7224 10.7907L35.0864 11.246L35.1775 11.1549C35.132 11.1094 35.1775 11.0639 35.223 11.0183L37.4075 9.1971C37.453 9.15157 37.4985 9.15157 37.544 9.1971L37.6351 9.10604L37.18 8.55966L37.0889 8.65073C37.0889 8.69626 37.0889 8.69626 37.0889 8.74179C37.0434 8.78732 36.9979 8.78732 36.9069 8.83285L35.314 9.47029L36.2242 8.01329C36.2697 7.96776 36.3152 7.87669 36.3152 7.87669C36.3608 7.83116 36.4063 7.87669 36.4063 7.87669L36.4973 7.78563L36.0422 7.23926L35.9512 7.33032C35.9967 7.37585 35.9967 7.42138 35.9056 7.46691L33.7666 9.28816Z" fill="white"></path>
<path d="M39.6398 13.6138L39.7764 14.2057L37.3643 14.7976C37.2733 14.7976 37.2277 14.7976 37.2277 14.752L37.1367 14.7976L37.2733 15.3439L37.3643 15.2984C37.3643 15.2529 37.3643 15.2074 37.4553 15.2074L39.8674 14.6154L40.0039 15.2074C40.0039 15.2529 40.0039 15.2984 39.8674 15.3439V15.3895L40.7321 15.1618V15.1163C40.6411 15.1618 40.5956 15.1163 40.5501 15.0708L40.1405 13.4316C40.1405 13.3861 40.1405 13.3406 40.277 13.295V13.2495L39.4123 13.4772V13.5227C39.5488 13.5227 39.5943 13.5682 39.6398 13.6138Z" fill="white"></path>
<path d="M40.5508 16.2548L38.7303 16.4369C37.7291 16.5279 37.5015 16.8922 37.5926 17.5752C37.6836 18.2581 37.9567 18.5768 38.9579 18.4403L40.7784 18.2581C40.8694 18.2581 40.9149 18.2581 40.9149 18.3492H41.0059L40.9604 17.7118H40.8694C40.8694 17.8028 40.8239 17.8483 40.7784 17.8483L38.9124 18.0305C38.3663 18.076 38.1842 17.8939 38.1842 17.4841C38.1387 17.1199 38.2752 16.8922 38.8214 16.8011L40.6873 16.619C40.7784 16.619 40.8239 16.619 40.8239 16.7101H40.9149L40.8694 16.1182H40.7784C40.6873 16.2092 40.6418 16.2092 40.5508 16.2548Z" fill="white"></path>
<path d="M40.0495 19.123C38.5022 19.1686 39.5034 20.6711 38.7752 20.7166C38.4111 20.7166 38.3201 20.3068 38.3201 20.1247C38.3201 19.8971 38.5022 19.4873 38.6842 19.4417C38.7297 19.4417 38.7297 19.4417 38.7752 19.4417L38.8207 19.3962L38.047 19.2141L38.0015 19.2596C38.047 19.2596 38.047 19.3052 38.047 19.3052C38.047 19.3962 37.7285 19.5783 37.774 20.1702C37.774 20.58 38.0015 21.1719 38.8663 21.1719C40.3681 21.1264 39.4124 19.6239 40.1861 19.5783C40.4591 19.5783 40.5957 19.8515 40.5957 20.0792C40.5957 20.3524 40.4136 20.6711 40.2316 20.7621C40.1861 20.7621 40.1406 20.8077 40.0951 20.8077H40.0495L40.8232 21.0353L40.8687 20.9898C40.8232 20.9898 40.8232 20.9443 40.8232 20.8987C40.8232 20.7621 41.1418 20.489 41.0963 19.9881C41.0963 19.3507 40.5957 19.0775 40.0495 19.123Z" fill="white"></path>
<path d="M41.1399 22.9022C41.1399 22.2648 40.5938 21.6729 39.456 21.6729C38.3637 21.6729 37.7721 22.2192 37.7266 22.8567C37.7266 23.3575 38.2272 23.7673 38.2272 23.8128V23.8584L38.2727 23.9039L38.9554 23.6762L38.9099 23.6307C38.9099 23.6307 38.8643 23.6307 38.8188 23.6307C38.5913 23.6307 38.3182 23.1754 38.3182 22.8567C38.3182 22.4469 38.7278 22.0826 39.456 22.0826C40.1842 22.0826 40.5938 22.4469 40.5938 22.9022C40.5938 23.1299 40.3662 23.5396 40.1842 23.5396C40.1387 23.5396 40.1387 23.5396 40.0931 23.5396L40.0476 23.5852L40.8213 23.9039L40.9123 23.8584C40.8668 23.8584 40.8213 23.8128 40.8213 23.8128C40.8213 23.8128 40.9123 23.7218 41.0034 23.5396C41.0489 23.3575 41.1399 23.1299 41.1399 22.9022Z" fill="white"></path>
<path d="M40.8696 24.6777L38.0024 24.5867C37.9113 24.5867 37.9113 24.5411 37.9113 24.4956H37.8203V25.133H37.9113C37.9113 25.0875 37.9568 25.042 38.0479 25.042L40.9151 25.133C41.0061 25.133 41.0061 25.1786 41.0061 25.2241H41.0971V24.5867H40.9606C40.9606 24.6322 40.9151 24.6777 40.8696 24.6777Z" fill="white"></path>
<path d="M40.8704 30.1418L40.9614 28.4116H40.8704C40.8704 28.4571 40.8249 28.4571 40.7338 28.4571L37.8666 28.3206C37.7756 28.3206 37.7756 28.275 37.7756 28.2295H37.6846L37.5936 30.0052C37.5936 30.0963 37.5936 30.1418 37.457 30.1418V30.1873L38.3217 30.2329V30.1873C38.2307 30.1873 38.1397 30.1418 38.1852 30.0507L38.2307 28.7759L39.0954 28.8214L39.0499 29.5499C39.0499 29.641 39.0044 29.6865 38.8224 29.6865V29.732L39.7781 29.7776V29.732C39.5961 29.732 39.5505 29.641 39.5961 29.5499L39.6416 28.8214L40.4153 28.8669L40.3697 30.0963C40.3697 30.1873 40.3242 30.2329 40.2332 30.2329V30.2784L41.0524 30.3239V30.2784C40.9159 30.2784 40.8249 30.2329 40.8704 30.1418Z" fill="white"></path>
<path d="M6.41843 41.3422L6.50945 41.2967L6.23638 40.7048L6.14536 40.7503C6.19087 40.7959 6.14536 40.8414 6.09985 40.8869C6.05434 40.9325 5.82678 40.9325 5.59922 40.978L3.8698 41.2056L5.28065 40.0674C5.46269 39.9308 5.55371 39.8397 5.64474 39.7942C5.73576 39.7486 5.78127 39.7942 5.78127 39.8397L5.87229 39.7942L5.59922 39.1567H5.5082C5.5082 39.2478 5.5082 39.2933 5.41718 39.3389L3.41469 40.978C3.27815 41.1146 3.14162 41.2056 3.09611 41.2056C3.0506 41.2056 3.00508 41.2512 3.00508 41.2056L2.91406 41.2512L3.14162 41.7975L3.23264 41.752C3.23264 41.7065 3.27815 41.7065 3.27815 41.7065C3.32366 41.7065 3.41469 41.661 3.59673 41.661L6.09985 41.3422C6.23638 41.2512 6.37291 41.2512 6.41843 41.3422Z" fill="white"></path>
<path d="M6.73303 42.0255C6.77854 41.98 6.86957 41.98 6.86957 42.071L6.96059 42.0255L6.68752 41.4336L6.5965 41.4791C6.64201 41.5247 6.5965 41.5702 6.55099 41.6157L4.04787 42.9817C4.00236 43.0272 3.91134 43.0272 3.91134 42.9361L3.82031 42.9817L4.09338 43.5736L4.1844 43.528C4.13889 43.4825 4.1844 43.437 4.22991 43.3914L6.73303 42.0255Z" fill="white"></path>
<path d="M7.32988 43.5732L7.69397 44.0741C7.73948 44.1196 7.73948 44.1651 7.64846 44.2562L7.69397 44.3017L8.42215 43.8009L8.33113 43.7098C8.2401 43.7553 8.19459 43.7553 8.14908 43.7098L7.19335 42.3439C7.14783 42.2983 7.14783 42.2528 7.23886 42.1617L7.19335 42.1162L6.46517 42.6171L6.51068 42.6626C6.6017 42.6171 6.64721 42.6171 6.69272 42.6626L7.05681 43.1634L5.00881 44.6204C4.96329 44.666 4.91778 44.666 4.87227 44.6204L4.78125 44.666L5.09983 45.1213L5.19085 45.0757C5.14534 45.0302 5.19085 44.9847 5.23636 44.9391L7.32988 43.5732Z" fill="white"></path>
<path d="M7.73705 47.1251C7.64603 47.1706 7.60052 47.2161 7.5095 47.1251L6.64478 46.2144L7.28194 45.6225L7.78256 46.1689C7.82808 46.26 7.87359 46.3055 7.73705 46.4421L7.78256 46.4876L8.51074 45.8046L8.46523 45.7591C8.3287 45.8957 8.28319 45.8502 8.19217 45.8046L7.73705 45.2583L8.3287 44.7119L9.1479 45.6225C9.23892 45.7136 9.19341 45.7591 9.1479 45.8046L9.19341 45.8502L9.78506 45.3038L9.73955 45.2583C9.69404 45.3038 9.60301 45.3493 9.51199 45.2583L8.3287 43.9834L8.23768 44.0745C8.28319 44.12 8.23768 44.1655 8.19217 44.2111L6.09865 46.1689C6.05314 46.2144 6.00763 46.2144 5.96212 46.2144L5.87109 46.3055L7.05439 47.5804C7.0999 47.6259 7.14541 47.6714 7.05439 47.7625L7.0999 47.808L7.73705 47.2161V47.1251Z" fill="white"></path>
<path d="M10.4664 47.3525C10.3299 47.5802 10.1023 47.6712 9.82925 47.4436L9.32863 47.0338L9.87477 46.3053L10.3754 46.7151C10.6485 46.8972 10.6029 47.1248 10.4664 47.3525ZM10.8305 47.5802C11.2401 46.9882 11.1491 46.624 10.785 46.3053L9.73823 45.5312L9.69272 45.6223C9.73823 45.6678 9.73823 45.7134 9.69272 45.7589L7.96329 48.0355C7.91778 48.081 7.87227 48.1265 7.82676 48.081L7.78125 48.1721L8.28187 48.5818L8.32738 48.4908C8.23636 48.4452 8.28187 48.3997 8.32738 48.3542L9.01005 47.4436L9.41965 47.7623L9.14659 48.8095C9.10108 48.9006 9.10108 48.9461 9.10108 48.9916C9.05556 49.0372 9.01005 49.0372 9.01005 48.9916L8.96454 49.0827L9.51068 49.4925L9.55619 49.4014C9.51068 49.3559 9.46516 49.3559 9.51068 49.2648L9.82925 47.9899C10.1478 48.1265 10.5119 47.9899 10.8305 47.5802Z" fill="white"></path>
<path d="M12.1054 48.5816L11.4683 48.2629L11.7868 47.5799L12.424 47.8987C12.606 47.9897 12.7426 48.1263 12.606 48.3995C12.515 48.7182 12.333 48.6727 12.1054 48.5816ZM12.0599 49.6744C11.9234 49.902 11.7413 49.9931 11.4683 49.902L10.8311 49.5833L11.2407 48.7638L11.8779 49.0825C12.1509 49.2191 12.1964 49.4467 12.0599 49.6744ZM12.3785 49.0369C12.606 49.0369 12.8336 48.9003 13.0156 48.5816C13.2887 47.9897 13.0156 47.6255 12.606 47.3978L11.5593 46.897L11.5138 46.988C11.5593 47.0336 11.6048 47.0791 11.5593 47.1246L10.3305 49.6744C10.285 49.7199 10.2395 49.7654 10.1939 49.7199L10.1484 49.811L11.3772 50.4029C11.7868 50.6305 12.1964 50.4029 12.424 49.9476C12.606 49.5378 12.5605 49.2646 12.3785 49.0369Z" fill="white"></path>
<path d="M14.3792 48.1265L13.7876 47.9443L13.7421 48.0354C13.7876 48.0354 13.8331 48.0809 13.7876 48.172L12.8774 50.8583C12.8318 50.9494 12.7863 50.9494 12.7408 50.9494L12.6953 51.0405L13.287 51.2226L13.3325 51.1315C13.287 51.1315 13.2414 51.086 13.287 50.9949L14.1972 48.3086C14.2427 48.2175 14.2882 48.2175 14.3337 48.2175L14.3792 48.1265Z" fill="white"></path>
<path d="M16.2479 48.6731C16.3389 48.6731 16.3389 48.7186 16.3389 48.8097L15.9293 50.6309C15.8383 51.1318 15.5652 51.2684 15.2011 51.1773C14.837 51.0862 14.655 50.9041 14.746 50.3577L15.1556 48.5365C15.1556 48.4454 15.2011 48.4454 15.2466 48.4454L15.2921 48.3544L14.7005 48.2178L14.655 48.3088C14.746 48.3088 14.746 48.3544 14.746 48.4454L14.3819 50.2667C14.1544 51.2228 14.4729 51.5871 15.1101 51.7237C15.7472 51.8603 16.1568 51.6781 16.3844 50.722L16.7485 48.9007C16.7485 48.8097 16.794 48.8097 16.8395 48.8097L16.885 48.7186L16.2934 48.582L16.2479 48.6731Z" fill="white"></path>
<path d="M18.9775 49.0369C19.023 49.0369 19.023 49.0824 19.023 49.1279C19.023 49.1735 18.9775 49.219 18.932 49.3556L18.2038 50.9036L17.8397 49.219C17.8397 49.1279 17.7942 49.0824 17.7942 49.0369C17.7942 48.9913 17.8397 48.9458 17.8397 48.9458V48.8547L17.1571 48.7637V48.8547C17.2026 48.8547 17.2481 48.9003 17.2026 48.9458L16.884 51.8143C16.884 51.9053 16.8385 51.9053 16.793 51.9053V51.9964L17.3391 52.0419V51.9509C17.2481 51.9509 17.2481 51.9053 17.2481 51.8143L17.4756 49.7198L17.9763 52.0875L18.9775 49.8564L18.75 51.9509C18.75 52.0419 18.7044 52.0419 18.6589 52.0419V52.133L19.2506 52.1785V52.0875C19.2051 52.0875 19.1596 52.0419 19.2051 51.9509L19.5236 49.0824C19.5236 48.9913 19.5692 48.9913 19.6147 48.9913V48.9003L18.932 48.8092L18.9775 49.0369Z" fill="white"></path>
<path d="M25.8959 51.8146L25.4863 48.9917C25.4863 48.9006 25.4863 48.9006 25.5318 48.9006V48.8096L24.8492 48.9006V48.9917C24.8947 48.9917 24.8947 48.9917 24.8947 49.0372C24.8947 49.0828 24.8947 49.1283 24.8947 49.2649L24.5761 50.9495L23.8024 49.4015C23.7569 49.3104 23.7114 49.2649 23.7114 49.2194C23.7114 49.1738 23.7569 49.1283 23.7569 49.1283V49.0372L23.0742 49.1283V49.2194C23.1197 49.2194 23.1652 49.2194 23.1652 49.3104L23.5748 52.1333C23.5748 52.2244 23.5748 52.2699 23.5293 52.2699V52.361L24.0755 52.2699V52.1789C23.9844 52.1789 23.9844 52.1333 23.9389 52.0878L23.6659 50.0389L24.7126 52.2244L25.1222 49.8113L25.3953 51.8602C25.3953 51.9512 25.3953 51.9968 25.3043 51.9968V52.0878L25.8959 51.9968V51.9057C25.9414 51.9057 25.8959 51.8602 25.8959 51.8146Z" fill="white"></path>
<path d="M28.4443 50.1756C28.4443 50.1756 28.4898 50.2211 28.4898 50.2666C28.5353 50.4943 28.2167 50.8586 27.8981 50.9496C27.4885 51.0862 27.0334 50.7675 26.8059 50.0845C26.6238 49.4016 26.8514 48.9007 27.261 48.7641C27.4885 48.6731 27.9436 48.8096 27.9891 48.9462C27.9891 48.9918 28.0347 48.9918 28.0347 49.0373L28.0802 49.0828L28.1712 48.2633L28.0802 48.2177C28.0802 48.2633 28.0802 48.3088 28.0347 48.3088C28.0347 48.3088 27.8981 48.2633 27.7161 48.2177C27.534 48.1722 27.3065 48.1722 27.0789 48.2177C26.4873 48.3999 26.0777 49.0828 26.3963 50.1756C26.7148 51.2228 27.3975 51.6326 28.0347 51.4505C28.4898 51.3139 28.7628 50.722 28.8083 50.722H28.8539V50.6764L28.4443 50.0845V50.1756Z" fill="white"></path>
<path d="M32.0839 49.6291L30.8551 47.0338C30.8095 46.9883 30.8551 46.9427 30.9006 46.8972L30.8551 46.8062L30.2179 47.0793L30.2634 47.1704C30.3089 47.1704 30.3089 47.1704 30.3544 47.2159C30.3544 47.2615 30.3999 47.307 30.3999 47.4436L30.582 49.1282L29.3987 47.8534C29.3532 47.8078 29.3077 47.7623 29.2622 47.7168C29.2622 47.6712 29.2622 47.6257 29.3077 47.6257L29.2622 47.5346L28.625 47.8534L28.6705 47.9444C28.716 47.9444 28.7615 47.9444 28.7615 47.99L29.9903 50.5852C30.0358 50.6763 29.9903 50.7218 29.9903 50.7218L30.0358 50.8129L30.5365 50.5852L30.491 50.4942C30.4454 50.5397 30.3999 50.4942 30.3544 50.4486L29.4897 48.5363L31.1281 50.312L30.8551 47.8989L31.7198 49.8112C31.7653 49.9023 31.7198 49.9478 31.6743 49.9478L31.7198 50.0389L32.2659 49.8112L32.2204 49.7201C32.1294 49.7201 32.0839 49.7201 32.0839 49.6291Z" fill="white"></path>
<path d="M34.2707 47.6712C34.3162 47.7623 34.3162 47.8534 34.2707 47.8989L33.224 48.5819L31.8586 46.4874C31.8131 46.4419 31.8131 46.3964 31.9041 46.3508L31.8586 46.2598L31.3125 46.624L31.358 46.7151C31.4035 46.6695 31.4945 46.6695 31.4945 46.7606L33.0419 49.1738C33.0874 49.2193 33.0874 49.2648 32.9964 49.3104L33.0419 49.4014L34.5438 48.4453C34.5893 48.3997 34.6803 48.3997 34.7258 48.4908L34.7713 48.4453L34.2707 47.7168V47.6712Z" fill="white"></path>
<path d="M36.3639 46.2596L34.9986 45.6677L34.589 44.2562C34.5435 44.1652 34.589 44.1196 34.68 44.0286L34.589 43.9375L34.0429 44.4383L34.1339 44.5294C34.1794 44.4839 34.2249 44.4839 34.2704 44.5294C34.3159 44.5749 34.3159 44.666 34.3614 44.7571L34.589 45.44L33.9063 45.1668C33.8153 45.1213 33.7243 45.0758 33.6788 45.0302C33.6333 44.9847 33.6333 44.9392 33.6788 44.8937L33.5877 44.8026L32.9961 45.349L33.0871 45.44C33.1781 45.3945 33.2237 45.3945 33.4512 45.44L34.771 45.9864L35.2261 47.4889C35.2717 47.6255 35.2261 47.6711 35.1806 47.7166L35.2717 47.8076L35.7723 47.3523L35.6813 47.2613C35.6357 47.3068 35.5902 47.2613 35.5902 47.2613C35.5447 47.2157 35.4992 47.1247 35.4992 47.0336L35.2717 46.2141L36.0453 46.5328C36.1364 46.5783 36.2274 46.6238 36.2729 46.6238C36.3184 46.6694 36.3184 46.7149 36.2729 46.7604L36.3639 46.8515L36.9101 46.3507L36.819 46.2596C36.6825 46.3962 36.4549 46.3051 36.3639 46.2596Z" fill="white"></path>
<path d="M38.1841 44.0744L36.7277 43.7557L36.045 42.4353C35.9995 42.3442 35.9995 42.2987 36.0905 42.2076L35.9995 42.1621L35.5444 42.754L35.6354 42.7995C35.6809 42.754 35.7264 42.754 35.772 42.754C35.8175 42.7995 35.863 42.8906 35.9085 42.9817L36.2271 43.6191L35.5444 43.4825C35.4534 43.4825 35.3624 43.437 35.3168 43.3915C35.2713 43.3459 35.2713 43.3004 35.2713 43.2549H35.1803L34.6797 43.8923L34.7707 43.9834C34.8162 43.8923 34.9072 43.8923 35.0893 43.9378L36.5001 44.211L37.2283 45.577C37.2738 45.668 37.2738 45.7591 37.2283 45.8046L37.3193 45.8501L37.7289 45.3038L37.6379 45.2582C37.5924 45.3038 37.5469 45.3038 37.5469 45.2582C37.5014 45.2127 37.4559 45.1216 37.4104 45.0761L37.0008 44.3021L37.82 44.4842C37.911 44.4842 38.002 44.5297 38.0475 44.5753C38.093 44.6208 38.1385 44.6663 38.093 44.6663L38.1841 44.7574L38.6392 44.1655L38.5481 44.12C38.4571 44.1655 38.2751 44.12 38.1841 44.0744Z" fill="white"></path>
<path d="M39.1379 42.8449L36.6348 41.479C36.5893 41.4335 36.5438 41.3879 36.5893 41.3424L36.4983 41.2969L36.1797 41.8433L36.2707 41.8888C36.3162 41.8433 36.3617 41.8433 36.4072 41.8433L38.9104 43.2092C38.9559 43.2547 39.0014 43.3003 38.9559 43.3458L39.0469 43.3913L39.3655 42.8449L39.2745 42.7994C39.2289 42.8449 39.1834 42.8905 39.1379 42.8449Z" fill="white"></path>
<path d="M40.0944 40.1587L38.638 40.2497L37.6368 39.157C37.5913 39.1114 37.5913 39.0204 37.6368 38.9293L37.5458 38.8838L37.2272 39.6123L37.3182 39.6578C37.3637 39.6123 37.3637 39.5668 37.4092 39.6123C37.4547 39.6123 37.5003 39.7034 37.5913 39.7944L38.0919 40.3408L37.3637 40.3863C37.2727 40.3863 37.1817 40.3863 37.1362 40.3863C37.0907 40.3863 37.0451 40.2953 37.0907 40.2497L36.9996 40.2042L36.7266 40.9782L36.8176 41.0238C36.8631 40.9327 36.9086 40.8872 37.1362 40.8872L38.547 40.7961L39.6393 41.9344C39.7303 42.0254 39.7303 42.071 39.6848 42.162L39.7758 42.2076L40.0034 41.5701L39.9123 41.4335C39.9123 41.4791 39.8668 41.4791 39.8213 41.4791C39.7758 41.4791 39.6848 41.388 39.6393 41.3425L39.0476 40.705L39.8668 40.6595C39.9579 40.6595 40.0489 40.6595 40.0944 40.6595C40.1399 40.6595 40.1854 40.705 40.1854 40.7506L40.2764 40.7961L40.5495 40.0676L40.4585 40.0221C40.413 40.1587 40.2309 40.1131 40.0944 40.1587Z" fill="white"></path>
<path d="M16.1116 4.64428C16.2026 5.00853 15.7475 5.19065 15.611 5.19065C15.3834 5.23618 14.9738 5.09959 14.8828 4.91747C14.8828 4.87194 14.8373 4.87194 14.8373 4.8264L14.7918 4.78087L14.7462 5.5549L14.7918 5.60043C14.7918 5.5549 14.7918 5.5549 14.8373 5.5549C14.9283 5.5549 15.1558 5.82809 15.7475 5.6915C16.1571 5.60043 16.7032 5.28172 16.5667 4.41662C16.2936 2.95962 14.9738 4.14344 14.7918 3.36941C14.7462 3.09622 14.9738 2.95962 15.2014 2.91409C15.4744 2.91409 15.793 3.05069 15.9295 3.23281C15.9295 3.27834 15.975 3.32387 15.975 3.36941H16.0206L16.1116 2.54984L16.0661 2.50431C16.0661 2.54984 16.0206 2.54984 16.0206 2.54984C15.884 2.59538 15.5654 2.32219 15.0648 2.41325C14.4732 2.54984 14.2456 3.09622 14.3822 3.59706C14.6552 5.14512 15.975 3.87025 16.1116 4.64428Z" fill="white"></path>
<path d="M16.8383 2.86875C16.8383 2.77769 16.8838 2.73216 16.9293 2.68662L17.5665 2.59556L17.9306 5.05425C17.9306 5.14531 17.9306 5.19084 17.8851 5.19084V5.2819L18.4767 5.19084V5.09978C18.4312 5.09978 18.3857 5.05425 18.3857 5.00872L18.0216 2.55003L18.6587 2.45897C18.7043 2.45897 18.7498 2.5045 18.7953 2.59556H18.8408L18.7043 1.73047H18.6587C18.6587 1.82153 18.6132 1.86706 18.5677 1.91259L16.8383 2.14025C16.7928 2.14025 16.7473 2.09472 16.7018 2.00366H16.6562L16.7928 2.86875H16.8383Z" fill="white"></path>
<path d="M21.4828 1.91223C21.4828 1.82116 21.5283 1.77563 21.5738 1.77563V1.68457L20.9366 1.7301V1.82116C21.0277 1.82116 21.0732 1.86669 21.0732 1.91223L21.1642 3.77901C21.2097 4.32538 20.9822 4.46197 20.6181 4.5075C20.254 4.5075 20.0264 4.37091 19.9809 3.87007L19.8899 2.00329C19.8899 1.91223 19.9354 1.8667 19.9809 1.8667V1.77563L19.3438 1.82116V1.91223C19.4348 1.91223 19.4348 1.95776 19.4348 2.00329L19.5713 3.87007C19.6168 4.87175 19.9809 5.09941 20.6636 5.09941C21.3462 5.05388 21.6648 4.78069 21.6193 3.77901L21.4828 1.91223Z" fill="white"></path>
<path d="M25.485 2.09448C25.5305 2.09448 25.576 2.14001 25.576 2.23107L25.1209 5.05401C25.1209 5.14507 25.0754 5.14507 24.9844 5.14507V5.23613L25.6215 5.3272V5.23613C25.576 5.23613 25.5305 5.1906 25.5305 5.09954L25.9856 2.27661C25.9856 2.18554 26.0311 2.18554 26.1222 2.18554V2.09448L25.485 2.00342V2.09448Z" fill="white"></path>
<path d="M5.23365 29.0489C5.18814 28.3659 4.86956 28.0472 3.91383 28.1383L2.04787 28.2749C1.95685 28.2749 1.91133 28.2294 1.91133 28.1838H1.82031L1.86582 28.7757H1.95685C1.95685 28.6847 2.00236 28.6391 2.04787 28.6391L3.91383 28.5025C4.45996 28.457 4.5965 28.6847 4.64201 29.0489C4.68752 29.4132 4.50547 29.6408 4.00485 29.6863L2.13889 29.8229C2.04787 29.8229 2.00236 29.7774 2.00236 29.7319H1.91133L1.95685 30.3693H2.04787C2.04787 30.2782 2.09338 30.2783 2.13889 30.2783L4.00485 30.1417C5.0061 30.0961 5.27917 29.7319 5.23365 29.0489Z" fill="white"></path>
<path d="M2.00217 27.4097L4.86938 27.3187C4.9604 27.3187 4.9604 27.3642 5.00591 27.3642H5.09694V26.8178H5.00591C5.00591 26.8634 4.9604 26.9089 4.91489 26.9089L2.73035 27L4.68734 25.7706C4.73285 25.7251 4.77836 25.7251 4.82387 25.7251C4.86938 25.7251 4.86938 25.7251 4.86938 25.7706H4.9604V25.1787H4.86938C4.86938 25.2242 4.82387 25.2698 4.77836 25.2698L1.91115 25.3608C1.82013 25.3608 1.77462 25.3153 1.77462 25.3153H1.68359V25.8617H1.77462C1.77462 25.8161 1.82013 25.7706 1.86564 25.7706L3.86813 25.6796L2.04768 26.8178C2.00217 26.8634 1.95666 26.8634 1.91115 26.8634C1.86564 26.8634 1.86564 26.8634 1.86564 26.8178H1.77462V27.4553H1.86564C1.86564 27.4553 1.91115 27.4097 2.00217 27.4097Z" fill="white"></path>
<path d="M4.77836 23.9495H1.91115C1.82013 23.9495 1.82013 23.9039 1.82013 23.8584H1.68359V24.4958H1.77462C1.77462 24.4503 1.82013 24.4048 1.86564 24.4048H4.73285C4.82387 24.4048 4.82387 24.4503 4.82387 24.4958H5.00591V23.8584H4.91489C4.86938 23.9039 4.82387 23.9495 4.77836 23.9495Z" fill="white"></path>
<path d="M1.95666 23.1754L4.41427 22.5835C4.59631 22.5379 4.73285 22.4924 4.77836 22.4924C4.82387 22.4924 4.86938 22.4924 4.86938 22.5379H4.9604V21.946H4.86938C4.82387 21.946 4.82387 21.9916 4.77836 21.9916C4.73285 21.9916 4.64182 21.946 4.45978 21.9005L2.04768 21.1265C1.95666 21.0809 1.82013 21.0809 1.82013 20.9443H1.7291L1.68359 21.5818H1.77462C1.77462 21.5362 1.82013 21.4907 1.86564 21.4907C1.95666 21.4907 2.09319 21.5818 2.32075 21.6273L4.09569 22.2192L2.36626 22.629C2.13871 22.6745 2.00217 22.7201 1.91115 22.7201C1.82013 22.7201 1.82013 22.6745 1.82013 22.6745H1.7291L1.68359 23.3575H1.77462C1.82013 23.2664 1.86564 23.2209 1.95666 23.1754Z" fill="white"></path>
<path d="M1.95685 20.3524C1.95685 20.3068 2.00236 20.3068 2.09338 20.3068L4.91508 20.6256C5.0061 20.6256 5.0061 20.6711 5.0061 20.7166H5.09712L5.27917 18.9864C5.27917 18.8954 5.32468 18.8498 5.4157 18.8954V18.8498L4.5965 18.6677V18.7132C4.68752 18.7132 4.73303 18.8043 4.73303 18.8498L4.5965 20.1247L3.73178 20.0337L3.82281 19.3052C3.82281 19.2141 3.86832 19.1686 4.05036 19.1686V19.123L3.09463 19.032V19.0775C3.27667 19.0775 3.32218 19.1686 3.27667 19.2596L3.18565 19.9881L2.41196 19.8971L2.54849 18.6677C2.54849 18.5767 2.594 18.5311 2.68503 18.5311V18.4856L1.86582 18.3945V18.4401C1.95685 18.4401 2.00236 18.4856 2.00236 18.5767L1.82031 20.3524H1.95685Z" fill="white"></path>
<path d="M2.91568 16.5278C3.0067 16.1636 3.18875 16.118 3.46181 16.1636C3.73488 16.2091 3.91693 16.3457 3.8259 16.7099L3.68937 17.3474L2.77915 17.1653L2.91568 16.5278ZM2.41506 17.5295L5.19124 18.0759C5.28226 18.0759 5.28226 18.1214 5.28226 18.2125H5.37329L5.50982 17.575H5.4188C5.4188 17.6661 5.37329 17.6661 5.28226 17.6661L4.18999 17.4384L4.28102 16.8921L5.32777 16.6644C5.4188 16.6644 5.46431 16.6189 5.50982 16.6189C5.55533 16.6189 5.55533 16.6644 5.55533 16.7099H5.64635L5.78289 16.027H5.69186C5.69186 16.0725 5.64635 16.118 5.60084 16.118L4.32653 16.3912C4.28102 16.027 4.05346 15.7993 3.50733 15.6627C2.82466 15.5261 2.50608 15.7993 2.41506 16.2546L2.1875 17.5295H2.27852C2.27852 17.5295 2.32403 17.5295 2.41506 17.5295Z" fill="white"></path>
<path d="M3.73316 14.8887C5.18952 15.3441 4.7344 13.6139 5.46258 13.796C5.82667 13.8871 5.78116 14.3424 5.73565 14.5245C5.64463 14.7522 5.37156 15.0709 5.144 15.0709C5.09849 15.0709 5.09849 15.0709 5.05298 15.0709H5.00747L5.69014 15.4807L5.73565 15.4351L5.69014 15.3896C5.73565 15.2985 6.05423 15.2075 6.23627 14.6611C6.37281 14.2513 6.3273 13.6139 5.50809 13.3407C4.05173 12.8854 4.50685 14.6156 3.73316 14.3879C3.46009 14.2968 3.46009 14.0237 3.5056 13.796C3.59662 13.5228 3.86969 13.2952 4.09725 13.2496C4.14276 13.2496 4.18827 13.2496 4.23378 13.2496L4.27929 13.2041L3.64213 12.8398L3.59662 12.8854C3.59662 12.8854 3.64213 12.9309 3.59662 12.9764C3.55111 13.0675 3.18702 13.2041 3.00498 13.7049C2.82293 14.2968 3.23253 14.7522 3.73316 14.8887Z" fill="white"></path>
<path d="M3.95802 11.8839L6.59768 12.9766C6.6887 13.0222 6.6887 13.0677 6.64319 13.1132L6.73421 13.1588L6.96177 12.5669L6.87074 12.5213C6.82523 12.5669 6.77972 12.6124 6.73421 12.5669L4.09456 11.4741C4.00354 11.4286 4.00354 11.3831 4.04905 11.3375L3.95802 11.292L3.73047 11.8839L3.82149 11.9294C3.867 11.8384 3.91251 11.8384 3.95802 11.8839Z" fill="white"></path>
<path d="M4.96119 10.8366C4.87017 10.7911 4.87017 10.7 4.87017 10.7L5.18875 10.1537L7.37329 11.383C7.4188 11.4285 7.46431 11.4741 7.4188 11.5196L7.50982 11.5651L7.78289 11.0643L7.73738 10.9732C7.69186 11.0187 7.64635 11.0187 7.60084 10.9732L5.4163 9.74387L5.73488 9.1975C5.73488 9.15197 5.8259 9.15197 5.91693 9.1975L5.96244 9.15197L5.18875 8.74219L5.14324 8.78772C5.23426 8.83325 5.23426 8.92431 5.23426 8.92431L4.41506 10.3813C4.41506 10.4268 4.32403 10.4268 4.23301 10.3813L4.1875 10.4724L4.96119 10.8822V10.8366Z" fill="white"></path>
<path d="M8.01031 8.5145L7.60071 9.06087L6.91804 8.05919L8.01031 8.5145ZM6.28088 7.83153C6.32639 7.87706 6.3719 7.96812 6.46292 8.05919L7.96479 10.1081C8.05582 10.1992 8.10133 10.2902 8.05582 10.3813L8.14684 10.4723L8.46542 10.0626L8.3744 9.9715C8.32888 10.017 8.28337 10.017 8.28337 9.9715C8.23786 9.92597 8.19235 9.88043 8.14684 9.8349L7.87377 9.47065L8.41991 8.74215L8.87502 8.92428C8.92053 8.96981 9.01155 8.96981 9.01155 9.01534C9.05706 9.06087 9.05706 9.1064 9.01155 9.1064L9.10257 9.19747L9.51218 8.69662L9.42115 8.60556C9.37564 8.60556 9.28462 8.65109 9.1936 8.60556L6.69048 7.64941C6.59946 7.60387 6.50844 7.60387 6.46292 7.55834C6.3719 7.51281 6.41741 7.46728 6.41741 7.42175V7.28516L6.00781 7.786L6.09883 7.87706C6.14435 7.83153 6.18986 7.786 6.28088 7.83153Z" fill="white"></path>
<path d="M10.4699 6.64766C10.6974 6.96638 10.3788 7.2851 10.2878 7.37616C10.1058 7.51275 9.69616 7.60382 9.51411 7.46722C9.4686 7.46722 9.4686 7.42169 9.42309 7.37616H9.37758L9.69616 8.10466H9.78718C9.78718 8.05913 9.78718 8.05913 9.78718 8.0136C9.87821 7.92254 10.1968 8.10466 10.6519 7.74041C10.9705 7.51275 11.3346 6.92085 10.7884 6.23788C9.87821 5.05407 9.24105 6.73872 8.74042 6.10129C8.55838 5.87363 8.74042 5.64598 8.87696 5.50938C9.10451 5.32726 9.4686 5.28173 9.65065 5.41832C9.69616 5.41832 9.74167 5.46385 9.74167 5.50938H9.78718L9.51411 4.73535H9.4686C9.4686 4.78088 9.4686 4.78088 9.42309 4.82641C9.33207 4.91748 8.92247 4.82641 8.51287 5.14513C8.01224 5.50938 8.10327 6.10129 8.42185 6.51107C9.37758 7.74041 10.0147 6.05576 10.4699 6.64766Z" fill="white"></path>
<path d="M22.8014 4.50787L22.9379 2.27684L23.5296 2.32237C23.9847 2.36791 24.2122 2.59556 24.1667 3.46065C24.1212 4.32575 23.8482 4.5534 23.393 4.50787H22.8014ZM24.5763 3.46065C24.6219 2.32237 24.2123 1.776 23.6661 1.776L22.4373 1.73047V1.82153C22.4828 1.82153 22.5283 1.86706 22.5283 1.95812L22.3918 4.82659C22.3918 4.91765 22.3463 4.91765 22.3008 4.91765V5.00871L23.5296 5.05425C24.0757 5.09978 24.5308 4.59893 24.5763 3.46065Z" fill="white"></path>
<path d="M39.0034 26.9546L39.0489 26.2716L40.1867 26.6814L39.0034 26.9546ZM40.7784 26.4992C40.7328 26.4992 40.5963 26.4537 40.5053 26.4082L38.0932 25.6342C37.9567 25.5886 37.8656 25.5431 37.8656 25.4976H37.7746V26.0439H37.8656C37.8656 25.9984 37.9111 25.9529 37.9567 25.9529C38.0022 25.9529 38.0477 25.9529 38.1387 25.9984L38.5938 26.135L38.5483 27.0456L38.0932 27.1822C38.0022 27.1822 37.9567 27.2277 37.9111 27.2277C37.8656 27.2277 37.8201 27.1822 37.8201 27.1822H37.7291L37.6836 27.8652H37.7746C37.8201 27.8196 37.8656 27.7741 37.9567 27.7286L40.5508 27.0456C40.6418 27.0001 40.7328 27.0001 40.7784 27.0001C40.8694 27.0001 40.8694 27.0456 40.9149 27.0912H41.0059V26.4537H40.9149C40.9149 26.4537 40.8694 26.4992 40.7784 26.4992Z" fill="white"></path>
<path d="M18.8436 0.273438H24.0318C34.2719 0.273438 42.5549 8.56011 42.5549 18.8046V35.1048C42.5549 45.3493 34.2719 53.636 24.0318 53.636H18.8436C8.60354 53.636 0.320498 45.3493 0.320498 35.1048V18.8502C0.274987 8.60565 8.60354 0.273438 18.8436 0.273438ZM19.3897 6.32909H23.3947C31.3136 6.32909 36.3199 12.749 36.3199 20.6714V33.2836C36.3199 41.206 31.3136 47.2161 23.3947 47.2161H19.3897C11.4707 47.2161 6.51003 41.3426 6.51003 33.4201V20.808C6.51003 12.8856 11.4707 6.32909 19.3897 6.32909Z" stroke="white" stroke-miterlimit="3.864" stroke-width="1.25"></path>
<path d="M13.6562 40.4319L13.8383 40.3408C15.4312 39.84 17.9798 39.248 21.0746 39.248C21.2111 39.248 21.3476 39.248 21.5297 39.248H21.7572C24.3514 39.248 26.809 39.6123 29.039 40.3408H29.0846L28.9935 40.6595H28.948C26.7635 39.931 24.3514 39.6123 21.7117 39.6123H21.5297C21.3932 39.6123 21.2111 39.6123 21.0746 39.6123C18.0253 39.6123 15.5222 40.2042 13.9748 40.705L13.7928 40.7961L13.6562 40.4319Z" fill="white"></path>
<path d="M13.8332 40.7048L13.7422 40.4771L13.8787 40.4316C15.5626 39.8852 18.2933 39.2478 21.5246 39.3388C24.2098 39.3388 26.7129 39.6575 29.034 40.4316L28.9429 40.6592C26.6674 39.9307 24.1643 39.5665 21.5246 39.5665C18.2933 39.521 15.6081 40.1129 13.9697 40.6592L13.8332 40.7048Z" fill="white"></path>
<path d="M10.5141 42.1621C10.4231 42.1621 10.3775 42.1165 10.332 42.0255C10.332 41.9344 10.332 41.8889 10.4231 41.8434C11.1057 41.4336 11.9704 41.0693 12.8351 40.7051L13.2903 40.5229L13.4268 40.8417L12.9717 41.0238C12.3345 41.2514 11.6974 41.5246 11.1512 41.7978H31.6768C31.0851 41.4791 30.4935 41.2059 29.8108 40.9783H29.7653L29.9019 40.6595H29.9474C30.8576 41.0238 31.6768 41.388 32.405 41.8434C32.4505 41.8889 32.496 41.9799 32.496 42.0255C32.496 42.1165 32.405 42.1621 32.314 42.1621H10.5141Z" fill="white"></path>
<path d="M32.3128 42.0709H10.5129C10.4674 42.0709 10.4219 42.0254 10.4219 41.9798C10.4219 41.9343 10.4219 41.8888 10.4674 41.8432C11.1501 41.4335 12.0148 41.0692 12.8795 40.7505L13.2891 40.5684L13.3801 40.796L12.9705 40.9781C12.2423 41.2513 11.5597 41.57 10.968 41.8432H31.9032C31.266 41.479 30.5833 41.2058 29.8552 40.8871L29.9462 40.6594C30.8564 41.0237 31.6756 41.3879 32.4038 41.8432C32.4493 41.8888 32.4493 41.9343 32.4493 41.9798C32.4038 42.0709 32.3583 42.0709 32.3128 42.0709Z" fill="white"></path>
<path d="M13.3828 37.7457C14.7481 35.9699 14.0655 34.6495 14.0655 34.6495C14.02 34.5585 14.0655 34.4674 14.111 34.4219C14.1565 34.4219 14.1565 34.4219 14.202 34.4219C14.2475 34.4219 14.293 34.4674 14.3385 34.5129C14.3841 34.5585 14.9757 35.7423 14.02 37.3814C13.9745 37.4725 13.7924 37.7001 13.4738 37.8367H13.4283L13.3828 37.7457Z" fill="white"></path>
<path d="M14.1995 34.4219H14.154C14.1084 34.4674 14.0629 34.5585 14.1084 34.604C14.1084 34.604 14.8366 35.9699 13.4258 37.7457L13.4713 37.7912C13.7899 37.6546 13.9264 37.4269 13.9719 37.3359C14.9277 35.7423 14.336 34.5585 14.2905 34.5129C14.2905 34.4674 14.245 34.4219 14.1995 34.4219Z" fill="white"></path>
<path d="M14.699 25.9984C14.6535 25.9984 14.608 25.9984 14.5625 25.9529C14.5625 25.9073 14.5625 25.8618 14.5625 25.8618L14.608 25.8163C14.608 25.8163 14.7445 25.6797 14.8811 25.6797H15.1541C15.1997 25.6797 15.2452 25.6797 15.2907 25.7252C15.2907 25.7707 15.2907 25.8163 15.2907 25.8163L15.2452 25.8618C15.2452 25.8618 15.1086 25.9984 14.9721 25.9984H14.699Z" fill="white"></path>
<path d="M14.6999 25.9528H14.7909H14.9274H14.9729C15.1095 25.9528 15.2005 25.8617 15.2005 25.8617L15.246 25.8162C15.246 25.8162 15.2915 25.7251 15.155 25.7251H15.064H14.9274H14.8819C14.7454 25.7251 14.6544 25.8162 14.6544 25.8162L14.6088 25.8617C14.6088 25.8617 14.5633 25.9528 14.6999 25.9528Z" fill="white"></path>
<path d="M29.3529 37.7908C29.0344 37.6087 28.8523 37.381 28.8068 37.3355C27.8511 35.6964 28.4427 34.5126 28.4882 34.467C28.5337 34.4215 28.5793 34.376 28.6248 34.376C28.6703 34.376 28.6703 34.376 28.7158 34.376C28.8068 34.4215 28.8068 34.5126 28.7613 34.6036C28.7613 34.6036 28.0786 35.9696 29.444 37.6998L29.4895 37.7453L29.3529 37.7908Z" fill="white"></path>
<path d="M28.764 34.6039C28.8095 34.5583 28.764 34.4673 28.7185 34.4673H28.673C28.6275 34.4673 28.582 34.4673 28.582 34.5128C28.5365 34.5584 27.9448 35.7422 28.9006 37.3358C28.9461 37.3813 29.1281 37.6089 29.4012 37.7911L29.4467 37.7455C28.0358 35.9698 28.764 34.6039 28.764 34.6039Z" fill="white"></path>
<path d="M21.2547 10.472V9.1516C21.0726 9.33372 20.8906 9.60691 20.754 9.83456L21.2547 10.472ZM21.5732 10.472L22.0739 9.83456C21.8918 9.56138 21.7098 9.33372 21.5732 9.1516V10.472ZM21.2547 11.9745V10.9728L20.572 10.1533C20.4355 10.3354 20.3444 10.5631 20.2534 10.7907L21.2547 11.9745ZM21.5732 11.9745L22.5745 10.7452C22.4835 10.5175 22.3924 10.3354 22.2559 10.1078L21.5732 10.9273V11.9745ZM21.2547 13.4315V12.4298L20.1169 11.0639C20.0259 11.2916 19.9803 11.5647 19.8893 11.7924L21.2547 13.4315ZM21.5732 13.4315L22.9386 11.7924C22.8931 11.5192 22.802 11.2916 22.711 11.0639L21.5732 12.4298V13.4315ZM28.855 13.5681C29.3101 13.4771 29.7653 13.4315 30.1749 13.4315C30.2204 13.4315 30.3114 13.4315 30.3569 13.4315C29.9928 13.2949 29.6287 13.2039 29.2646 13.1583L28.855 13.5681ZM12.653 13.4315C13.0626 13.4315 13.5177 13.4771 13.9729 13.5681L13.5633 13.1583C13.1992 13.2039 12.8351 13.3405 12.471 13.4315C12.562 13.4315 12.6075 13.4315 12.653 13.4315ZM27.3076 13.9779C27.6262 13.8868 27.9448 13.7502 28.3089 13.7047L28.9005 13.1128C28.673 13.0673 28.4454 13.0673 28.2179 13.0673C28.1724 13.0673 28.1269 13.0673 28.1269 13.0673H28.0813L27.3076 13.9779ZM14.5645 13.6592C14.8831 13.7502 15.2017 13.8413 15.5658 13.9324L14.7921 13.0217C14.7466 13.0217 14.701 13.0217 14.6555 13.0217C14.428 13.0217 14.2004 13.0217 13.9729 13.0673L14.5645 13.6592ZM29.9473 14.16C30.2204 14.0234 30.4934 13.8868 30.6755 13.7502C30.4934 13.7502 30.3569 13.7502 30.1749 13.7502C29.8108 13.7502 29.4012 13.7958 28.9916 13.8413L29.9473 14.16ZM12.1524 13.7502C12.3345 13.8413 12.6075 13.9779 12.9261 14.16L13.8818 13.8413C13.4722 13.7502 13.0626 13.7502 12.6985 13.7502C12.471 13.7502 12.2889 13.7502 12.1524 13.7502ZM25.9423 14.5243C25.9878 14.5243 25.9878 14.4787 25.9423 14.5243C26.2154 14.3877 26.4429 14.2966 26.716 14.2056L27.6262 13.1128C27.2621 13.1583 26.9436 13.2039 26.5795 13.2949L25.9423 14.5243ZM16.1119 14.16C16.3394 14.2511 16.6125 14.3422 16.8401 14.4787H16.8856L16.2484 13.2494C15.9298 13.1583 15.5658 13.0673 15.2017 13.0673L16.1119 14.16ZM28.7185 14.7975C28.9916 14.6609 29.3101 14.4787 29.5377 14.3422L28.3544 13.9324C27.9903 14.0234 27.6262 14.1145 27.2621 14.2511L28.7185 14.7975ZM14.1094 14.7975L15.5658 14.2966C15.2017 14.16 14.8376 14.069 14.4735 13.9779L13.2902 14.3877C13.5633 14.5243 13.8363 14.6609 14.1094 14.7975ZM21.2547 14.9341V13.9324L19.7983 12.2022C19.7528 12.4754 19.7073 12.7941 19.7073 13.1128L21.2547 14.9341ZM21.5732 14.9341L23.1206 13.1128C23.1206 12.7941 23.0751 12.5209 23.0296 12.2022L21.5732 13.9324V14.9341ZM24.85 15.1617C25.0321 15.0251 25.2596 14.8885 25.4872 14.7519L26.2154 13.4315C25.9423 13.5226 25.7148 13.6592 25.4872 13.7958C25.4417 13.8413 25.3962 13.8413 25.3507 13.8868L24.85 15.1617ZM17.3862 14.7975C17.6138 14.9341 17.7958 15.0707 18.0234 15.2072L17.5682 13.8868C17.5227 13.8413 17.4772 13.8413 17.3862 13.7958C17.1586 13.6592 16.9311 13.5681 16.658 13.4315L17.3862 14.7975ZM27.5352 15.4804C27.8083 15.3438 28.0813 15.1617 28.3544 15.0251L26.807 14.4787C26.5795 14.5698 26.3519 14.6609 26.1244 14.7975C26.0788 14.843 25.9878 14.843 25.9423 14.8885L27.5352 15.4804ZM15.3382 15.4804L16.8856 14.8885C16.8401 14.843 16.749 14.843 16.7035 14.7975C16.476 14.7064 16.2484 14.5698 16.0209 14.4787L14.4735 15.0251L15.3382 15.4804ZM18.433 15.5715C18.5695 15.7081 18.706 15.8447 18.8426 15.9813L18.706 14.843C18.4785 14.6153 18.2509 14.3877 17.9778 14.2056L18.433 15.5715ZM23.9853 15.9357C24.1219 15.7992 24.2584 15.6626 24.3949 15.526L24.85 14.16C24.577 14.3422 24.3494 14.5698 24.1219 14.7975L23.9853 15.9357ZM16.567 16.1179L18.0234 15.5715C17.7958 15.3894 17.5227 15.2072 17.2497 15.0251L15.7023 15.617L16.567 16.1179ZM26.2609 16.1179L27.1256 15.6626L25.5782 15.0707C25.3052 15.2072 25.0776 15.3894 24.8045 15.617L26.2609 16.1179ZM21.2547 16.3911V15.3894L19.7073 13.5681C19.7073 13.9324 19.7073 14.2966 19.7528 14.6153L21.2547 16.3911ZM21.5732 16.3911L23.0296 14.6609C23.0751 14.2966 23.1206 13.9324 23.1206 13.6137L21.5732 15.4349V16.3911ZM17.7503 16.7553L18.8426 16.3455C18.6605 16.1634 18.4785 15.9813 18.2964 15.7992L16.9311 16.3L17.7503 16.7553ZM25.1231 16.7553L25.9423 16.3L24.577 15.7992C24.3949 15.9813 24.2129 16.1634 24.0308 16.3455L25.1231 16.7553ZM19.2522 16.3911C19.5707 16.7553 19.8438 17.1651 20.0714 17.5749C19.9803 17.0285 19.7528 16.1634 19.1156 15.2983L19.2522 16.3911ZM23.7578 15.2983C23.4392 15.7536 23.1661 16.2089 22.9841 16.7098C22.8931 16.983 22.802 17.3017 22.802 17.5749C23.0296 17.1651 23.3027 16.7553 23.6212 16.3911L23.7578 15.2983ZM19.8893 17.9391C19.6618 17.4838 19.3432 17.0285 19.0246 16.6187L18.0689 16.983C18.8426 17.3927 19.4797 17.7115 19.8893 17.9391ZM23.8033 16.6187C23.4847 17.0285 23.2116 17.4838 22.9386 17.9391C23.3482 17.7115 23.9853 17.3927 24.7135 16.983L23.8033 16.6187ZM19.8893 15.2528C20.1624 16.4821 20.7085 17.3017 21.2547 17.9846V16.8464L19.8893 15.2528ZM21.5732 18.0302C22.1194 17.3472 22.6655 16.5276 22.9386 15.2983L21.5732 16.9374V18.0302ZM20.3899 18.3489C20.8451 18.44 21.1636 18.531 21.3457 18.5766L21.3002 18.4855C21.0271 18.1668 20.663 17.7115 20.3444 17.1651C20.4355 17.8481 20.3899 18.2578 20.3899 18.3489ZM22.529 17.1651C22.2104 17.757 21.8463 18.1668 21.5277 18.531L21.4822 18.6221C21.6187 18.5766 21.9828 18.44 22.4379 18.3489C22.4379 18.3034 22.3924 17.8481 22.529 17.1651ZM19.9803 18.8042C20.1624 18.7587 20.3899 18.7131 20.6175 18.7131C20.2534 18.6221 19.7528 18.531 19.2067 18.531L19.9803 18.8042ZM22.2559 18.7131C22.4835 18.7587 22.6655 18.7587 22.8931 18.8042L23.7123 18.531C23.1206 18.531 22.62 18.6221 22.2559 18.7131ZM18.7515 19.1229C18.9336 19.0319 19.1611 18.9863 19.4342 18.9408L18.3875 18.5766C17.9323 18.6221 17.4772 18.7587 17.0676 18.9408L18.7515 19.1229ZM23.3937 18.9408C23.6212 18.9863 23.8488 19.0774 24.0764 19.1229L25.7603 18.8953C25.3507 18.7131 24.8956 18.6221 24.4404 18.531L23.3937 18.9408ZM16.5215 19.1685C16.4305 19.214 16.3394 19.2595 16.2484 19.3506C16.0664 19.4416 15.9298 19.5782 15.7478 19.7148H17.4772C17.6593 19.6238 17.8868 19.5327 18.1144 19.4416L16.5215 19.1685ZM24.7135 19.3506C24.9411 19.4416 25.1231 19.5327 25.3507 19.6238H27.0801C26.9436 19.4872 26.7615 19.3961 26.5795 19.2595C26.4884 19.214 26.3974 19.1229 26.3064 19.0774L24.7135 19.3506ZM19.7528 19.6693L20.754 18.9863C20.5265 19.0319 20.2989 19.0774 20.0714 19.1229L19.7528 19.6693ZM23.1206 19.6693L22.7565 19.1229C22.529 19.0774 22.3014 19.0319 22.0739 18.9863L23.1206 19.6693ZM15.3837 19.988C15.1562 20.1701 14.9741 20.3978 14.7921 20.6255L16.1119 20.5344C16.3394 20.3523 16.567 20.2157 16.7946 20.0791C16.8401 20.0336 16.8856 20.0336 16.9311 19.988H15.3837ZM28.0358 20.6255C27.8538 20.3978 27.6262 20.2157 27.4442 19.988H25.9423C25.9878 20.0336 26.0333 20.0336 26.0788 20.0791C26.3064 20.2157 26.534 20.3523 26.7615 20.5344L28.0358 20.6255ZM18.3419 20.6255L19.1611 20.0791L19.6618 19.214C19.3887 19.2595 19.1611 19.3506 18.8881 19.4416L18.3419 20.6255ZM23.7123 20.0791L24.3494 20.4889L24.486 20.5799L23.9398 19.3961C23.7123 19.3051 23.4392 19.2595 23.1661 19.1685L23.7123 20.0791ZM16.9311 21.5361L17.8413 20.9442L18.433 19.5782C18.1599 19.6693 17.8868 19.8059 17.6138 19.9425L16.9311 21.5361ZM25.8968 21.5361L25.1686 19.897C24.8956 19.7604 24.6225 19.6693 24.3494 19.5327L24.9411 20.8986L25.8968 21.5361ZM28.8095 21.7182C28.673 21.445 28.4909 21.1718 28.3089 20.9442L27.1711 20.8531C27.3987 21.0352 27.6262 21.2629 27.8538 21.445L28.8095 21.7182ZM14.519 20.9442C14.337 21.2174 14.1549 21.445 14.0184 21.7182L14.9741 21.445C15.2017 21.2174 15.4292 21.0352 15.6568 20.8531L14.519 20.9442ZM20.7995 19.3506C20.754 19.9425 20.663 20.8531 20.572 21.9003C21.0726 21.354 21.6187 20.9442 22.2559 20.6255C22.2104 20.1246 22.1649 19.7148 22.1649 19.3961L21.4367 18.8953L20.7995 19.3506ZM22.2559 20.9897C21.6643 21.2629 21.1636 21.6727 20.7085 22.1735C20.9816 22.0825 21.2547 21.9914 21.5277 21.9914H21.5732C21.8008 21.9914 22.0739 22.0369 22.3469 22.128C22.3469 21.7182 22.3014 21.354 22.2559 20.9897ZM15.7023 22.4012L16.4305 21.9003L17.2042 20.1701C17.1131 20.2157 17.0221 20.2612 16.9311 20.3067C16.7035 20.4433 16.476 20.5799 16.2939 20.7621L15.7023 22.4012ZM27.1256 22.4012L26.534 20.7621C26.3064 20.6255 26.1244 20.4433 25.8968 20.3067C25.8058 20.2612 25.7148 20.2157 25.6237 20.1701L26.3974 21.9003L27.1256 22.4012ZM28.1269 23.0841L27.6262 21.6727C27.4442 21.4906 27.2166 21.3084 26.9891 21.1263L27.5352 22.7199L28.1269 23.0841ZM15.8388 21.0808C15.6113 21.2629 15.3837 21.445 15.2017 21.6727L14.7466 23.0841L15.2927 22.7199L15.8388 21.0808ZM13.8818 22.128C13.7453 22.4922 13.6088 22.902 13.5633 23.3118C13.8363 22.8565 14.1549 22.3556 14.5645 21.9459L13.8818 22.128ZM28.3089 21.9003C28.7185 22.3556 29.0371 22.811 29.3101 23.2663C29.2646 22.8565 29.1281 22.4467 28.9916 22.0825L28.3089 21.9003ZM20.481 22.6288C20.4355 22.9475 20.4355 23.3118 20.3899 23.6305C20.8906 23.1297 21.4822 22.6744 22.1194 22.4012C21.9373 22.3556 21.7098 22.3101 21.5732 22.3101H21.5277C21.2091 22.3556 20.8906 22.4467 20.481 22.6288ZM14.701 22.219C14.2459 22.7199 13.9274 23.2663 13.6543 23.8126C13.8363 23.676 14.0639 23.5395 14.2914 23.3573L14.701 22.219ZM29.1736 23.8126C28.9461 23.2663 28.582 22.7654 28.1269 22.219L28.5365 23.3573C28.8095 23.5395 28.9916 23.676 29.1736 23.8126ZM22.3924 22.6744C21.5277 23.0386 20.8906 23.585 20.481 24.0403C20.8451 23.8582 21.2091 23.7671 21.5277 23.7671C21.8463 23.7671 22.1649 23.8126 22.4835 23.9492C22.438 23.4939 22.4379 23.0841 22.3924 22.6744ZM20.3444 24.4501C20.2989 24.8143 20.2989 25.2241 20.2534 25.5884C20.8451 24.9509 21.4822 24.4956 22.2559 24.1769C21.9828 24.0858 21.7553 24.0858 21.5277 24.0858H21.4822C21.2091 24.0858 20.7995 24.2224 20.3444 24.4501ZM22.529 24.4501C21.4822 24.8599 20.7995 25.4973 20.3444 25.9981C20.7995 25.7705 21.1636 25.6794 21.5277 25.6794C21.8463 25.6794 22.2104 25.725 22.62 25.8615C22.5745 25.4062 22.529 24.9509 22.529 24.4501ZM29.2646 25.9071V26.4079C29.3101 26.4079 29.5377 26.4079 29.7197 26.1347V26.0892C29.6742 26.0437 29.5377 25.9981 29.2646 25.9071ZM13.5633 25.9071C13.3357 25.9526 13.1992 26.0437 13.1537 26.1803V26.2258C13.2902 26.4534 13.5633 26.499 13.6088 26.499L13.5633 25.9071V25.8615V25.9071ZM15.7478 26.6811C15.7023 26.6811 15.7023 26.6811 15.7478 26.6811C15.7023 26.6811 15.6568 26.7266 15.6568 26.7722C15.6568 26.8177 15.6568 26.8632 15.6568 26.8632C15.7023 26.9088 15.7478 26.9088 15.7933 26.9543H15.8388C15.9298 26.9543 15.9754 26.9088 15.9754 26.8177C15.8843 26.7722 15.8388 26.7266 15.8388 26.7266C15.7933 26.6811 15.7478 26.6811 15.7478 26.6811ZM26.898 26.8177C26.898 26.8632 26.9436 26.9088 27.0346 26.9543C27.0346 26.9543 27.0346 26.9543 27.0801 26.9543C27.1256 26.9543 27.1711 26.9088 27.2166 26.8632C27.2166 26.8177 27.2621 26.7722 27.2166 26.7722C27.2166 26.7266 27.1711 26.7266 27.1711 26.6811C27.1711 26.6811 27.1711 26.6811 27.1256 26.6811C27.1256 26.6811 27.0801 26.6811 27.0801 26.7266C27.0346 26.7266 26.9891 26.7722 26.898 26.8177ZM20.2079 26.4534C20.2079 26.8632 20.1624 27.273 20.1624 27.6373C20.6175 27.1364 21.3457 26.5445 22.3924 26.1347C22.0739 26.0437 21.8008 25.9981 21.5732 25.9981H21.5277C21.1636 26.0437 20.7085 26.1803 20.2079 26.4534ZM26.625 26.9998C26.534 27.0454 26.4429 27.0909 26.3974 27.1364C26.3064 27.273 26.3064 27.4551 26.3519 27.6828C26.3519 27.6828 26.3519 27.7283 26.3974 27.7283H26.4429C26.4429 27.7283 26.6705 27.5462 26.898 27.5462H27.8538H27.8993L28.2634 26.9088L28.3999 26.6356L28.9005 26.5445C28.9005 26.5445 28.9005 26.5445 28.9005 26.499V25.5884C28.9005 25.5884 28.9005 25.5884 28.9005 25.5428L28.764 25.3607C28.764 25.3607 28.764 25.3607 28.7185 25.3607L28.3999 25.4062L28.2179 25.2241C28.2179 25.2241 28.2179 25.2241 28.1724 25.2241C27.2621 25.2241 26.9436 25.5428 26.8525 25.6794C26.3064 25.816 26.0333 25.9526 25.9878 25.9526L25.9423 25.9981C25.9423 25.9981 25.9423 26.0437 25.9878 26.1347C26.0333 26.1803 26.0788 26.1803 26.1699 26.1803C26.2609 26.1803 26.3064 26.1347 26.3519 26.1347L26.4884 26.0892L26.3974 26.2258C26.3064 26.3624 26.2154 26.4079 26.1244 26.4079C26.1244 26.4535 26.1244 26.4535 26.1699 26.499C26.1699 26.499 26.2154 26.5445 26.2609 26.5445C26.3519 26.59 26.3974 26.59 26.4884 26.59C26.6705 26.59 26.807 26.499 26.898 26.4079C26.9436 26.4079 26.9436 26.3624 26.9436 26.3624C26.9891 26.3169 27.0801 26.3169 27.1256 26.3169C27.2166 26.3169 27.3076 26.3624 27.3532 26.4079C27.4442 26.499 27.4897 26.59 27.4897 26.7266C27.4897 26.8632 27.4442 26.9543 27.3532 27.0454C27.2621 27.1364 27.1711 27.1819 27.0346 27.1819C26.9891 27.273 26.7615 27.2275 26.625 26.9998ZM14.0639 25.4062L13.9274 25.5884C13.9274 25.5884 13.9274 25.5884 13.9274 25.6339V26.5445C13.9274 26.5445 13.9274 26.59 13.9729 26.59L14.428 26.6356L14.5645 26.9088L14.9286 27.5462C14.9286 27.5462 14.9286 27.5462 14.9741 27.5462H15.9298C16.2029 27.5462 16.385 27.7283 16.385 27.7283C16.385 27.7283 16.385 27.7283 16.4305 27.7283C16.476 27.7283 16.476 27.7283 16.476 27.6828C16.567 27.4551 16.567 27.273 16.4305 27.1364C16.385 27.0909 16.2939 26.9998 16.2029 26.9998C16.0664 27.2275 15.8388 27.2275 15.7478 27.2275C15.6113 27.2275 15.5202 27.1819 15.4292 27.0909C15.3382 26.9998 15.2927 26.9088 15.2927 26.7722C15.2927 26.6356 15.3382 26.5445 15.4292 26.4534C15.4747 26.4079 15.5658 26.3624 15.6568 26.3624C15.7023 26.3624 15.7933 26.3624 15.8388 26.4079L15.8843 26.4534C15.9754 26.499 16.1119 26.6356 16.2939 26.6356C16.385 26.6356 16.4305 26.6356 16.5215 26.59C16.567 26.59 16.567 26.5445 16.6125 26.5445V26.499C16.5215 26.499 16.4305 26.4535 16.3394 26.3169L16.2484 26.1803L16.385 26.2258C16.385 26.2258 16.476 26.2713 16.567 26.2713C16.658 26.2713 16.7035 26.2713 16.749 26.2258C16.7946 26.1803 16.7946 26.0892 16.7946 26.0892C16.7946 26.0892 16.7946 26.0437 16.749 26.0437C16.7035 26.0437 16.4305 25.9071 15.8843 25.7705C15.7933 25.6794 15.5202 25.3152 14.5645 25.3152C14.5645 25.3152 14.5645 25.3152 14.519 25.3152L14.337 25.4973L14.0639 25.4062ZM22.62 26.4534C21.5277 26.8632 20.7995 27.4551 20.3444 27.956C20.754 27.7283 21.1636 27.6373 21.5277 27.6373H21.5732C21.8918 27.6373 22.3014 27.7283 22.711 27.8649C22.6655 27.4096 22.6655 26.9088 22.62 26.4534ZM28.4454 28.047C28.4909 27.8649 28.5365 27.6828 28.582 27.5007C28.6275 27.3641 28.582 27.2275 28.5365 27.0909C28.4454 27.2275 28.3544 27.3641 28.2634 27.5462L28.1269 27.8194L28.4454 28.047ZM14.337 27.0454C14.2914 27.182 14.2459 27.3185 14.2914 27.4551C14.337 27.6373 14.3825 27.8194 14.428 28.0015L14.7466 27.7739L14.61 27.5007C14.519 27.3641 14.428 27.182 14.337 27.0454ZM13.8818 27.0909C13.8363 27.2275 13.7908 27.3641 13.8363 27.5007C13.8818 27.6828 13.9273 27.9104 14.0184 28.2292L14.1094 28.1381C14.1549 28.0926 14.1549 28.047 14.1549 28.047C14.0639 27.8194 14.0184 27.6828 14.0184 27.5462C13.9729 27.3641 14.0184 27.1819 14.1094 26.9998L14.1549 26.9088C14.1094 26.9088 14.0639 26.9088 14.0639 26.9088L13.8818 27.0909ZM28.8095 26.9998C28.9005 27.1819 28.9005 27.3641 28.9005 27.5462C28.855 27.6828 28.8095 27.8194 28.764 28.047C28.764 28.0926 28.764 28.1381 28.8095 28.1836L28.9005 28.2747C28.9916 27.956 29.0371 27.6828 29.0826 27.5462C29.0826 27.4096 29.0826 27.273 29.0371 27.1364L28.9461 26.9088C28.9005 26.9088 28.855 26.9088 28.855 26.9088L28.8095 26.9998ZM29.2191 27.0454C29.3101 27.182 29.3101 27.3641 29.3101 27.5462C29.2646 27.7283 29.2646 27.9104 29.1736 28.1381C29.1281 28.2292 29.1736 28.3658 29.2646 28.4113L29.3101 28.4568C29.4012 28.0926 29.4467 27.8194 29.4922 27.6373C29.4922 27.5007 29.4922 27.3185 29.4012 27.1819L29.2191 26.8632C29.1736 26.8632 29.1281 26.8632 29.1281 26.9088L29.2191 27.0454ZM13.4267 27.1364C13.3357 27.273 13.3357 27.4096 13.3357 27.5917C13.3812 27.7739 13.4267 28.047 13.5177 28.4113L13.5633 28.3658C13.6543 28.3202 13.6998 28.1836 13.6543 28.0926C13.6088 27.8649 13.5633 27.6828 13.5177 27.5007C13.5177 27.3185 13.5177 27.1819 13.6088 26.9998L13.6998 26.8177C13.6543 26.8177 13.6088 26.8177 13.6088 26.7722L13.4267 27.1364ZM16.1119 28.3658C16.1574 28.4113 16.2029 28.4568 16.2484 28.4568C16.2939 28.4568 16.2939 28.4568 16.3394 28.4113L16.5215 28.3202L16.1574 27.956C16.1119 27.9104 16.0209 27.8649 15.9298 27.8649V27.8194V27.8649H15.7478L16.1119 28.3658ZM26.534 28.4113C26.5795 28.4113 26.5795 28.4568 26.625 28.4568C26.6705 28.4568 26.7615 28.4113 26.7615 28.3658L27.1256 27.8649H26.9436V27.8194V27.8649C26.8525 27.8649 26.7615 27.9104 26.716 27.956L26.3519 28.3202L26.534 28.4113ZM29.6742 27.0909C29.7653 27.2275 29.8108 27.4551 29.7653 27.6373C29.7197 27.8194 29.7197 28.047 29.6287 28.2747C29.5832 28.3658 29.6287 28.4568 29.7197 28.5479L29.8563 28.6389C29.9473 28.1836 29.9928 27.8194 29.9928 27.5917C29.9928 27.4551 29.9473 27.3185 29.9018 27.2275L29.6287 26.7266C29.5832 26.7266 29.5377 26.7722 29.4467 26.8177L29.6742 27.0909ZM12.8806 27.1364C12.7896 27.273 12.7896 27.3641 12.7896 27.5007C12.7896 27.7283 12.8351 28.0926 12.9261 28.5479L13.0626 28.4568C13.1992 28.4568 13.1992 28.3658 13.1992 28.2292C13.1537 28.0015 13.1081 27.7739 13.0626 27.5917C13.0626 27.4096 13.0626 27.2275 13.1537 27.0454L13.3357 26.7266C13.2447 26.6811 13.1992 26.6811 13.1537 26.6356L12.8806 27.1364ZM15.1562 27.8649C15.2472 28.047 15.4747 28.4568 15.6113 28.7755L15.7933 28.6845C15.8388 28.6389 15.8843 28.5934 15.8843 28.5479C15.8843 28.5024 15.8843 28.4568 15.8388 28.4113L15.5202 28.0015C15.4747 27.9104 15.3837 27.8649 15.2472 27.8649V27.8194V27.8649H15.1562ZM27.6262 27.8649C27.5352 27.8649 27.4442 27.9104 27.3532 28.0015L27.0346 28.4113C26.9891 28.4568 26.9891 28.5024 26.9891 28.5479C26.9891 28.5934 27.0346 28.6389 27.0801 28.6845L27.2621 28.7755C27.3532 28.4568 27.5807 28.047 27.7173 27.8649H27.6262V27.8194V27.8649ZM14.6555 28.2747C14.5645 28.3202 14.5645 28.4113 14.5645 28.4568C14.61 28.5934 14.701 28.7755 14.7921 28.9577L15.1562 28.5479C15.0651 28.3202 14.9741 28.1836 14.9286 28.1836L14.8831 28.0926L14.6555 28.2747ZM28.0813 28.9577C28.1724 28.7755 28.2179 28.6389 28.3089 28.4568C28.3544 28.3658 28.3089 28.3202 28.2634 28.2747L27.9903 28.0926L27.9448 28.1836C27.9448 28.1836 27.8538 28.3202 27.7173 28.5479L28.0813 28.9577ZM14.1549 28.5024C14.1094 28.5479 14.1094 28.5934 14.1094 28.6389C14.2004 28.8211 14.2459 29.0487 14.337 29.2309L14.428 29.1398C14.4735 29.0943 14.4735 29.0487 14.428 28.9577C14.337 28.7755 14.2914 28.6389 14.2004 28.4568L14.1549 28.5024ZM28.6275 28.4568C28.5365 28.6389 28.4909 28.8211 28.3999 28.9577C28.3544 29.0032 28.3999 29.0943 28.3999 29.1398L28.4909 29.2309C28.582 29.0487 28.673 28.8211 28.7185 28.6389C28.7185 28.5934 28.7185 28.5479 28.673 28.5024L28.6275 28.4568ZM13.6998 28.6389C13.6543 28.6845 13.6543 28.7755 13.6543 28.8666C13.7453 29.0943 13.8363 29.3219 13.9274 29.5496L14.0184 29.413C14.0639 29.3674 14.0639 29.3219 14.0639 29.2764C13.9729 29.0487 13.8818 28.8666 13.7908 28.6389H13.6998ZM29.0371 28.5934C28.9461 28.8211 28.9005 29.0032 28.764 29.2309C28.7185 29.2764 28.764 29.3674 28.8095 29.3674L28.9005 29.504C28.9916 29.2764 29.0826 29.0487 29.1736 28.8211C29.2191 28.73 29.1736 28.6845 29.1281 28.6389L29.0371 28.5934ZM20.1169 28.4568C20.1169 28.6845 20.1169 28.9121 20.1169 29.0943C20.1169 29.2764 20.1169 29.413 20.1169 29.5951C20.572 29.1398 21.3457 28.5024 22.4835 28.1381C22.1649 28.0015 21.8463 27.956 21.5732 27.956H21.5277C21.1181 27.956 20.663 28.1381 20.1169 28.4568ZM22.711 28.4113C21.5277 28.8211 20.754 29.4585 20.2989 29.9138C20.754 29.6862 21.1636 29.5496 21.5277 29.5496H21.5732C21.9373 29.5496 22.3014 29.6406 22.711 29.7772C22.711 29.5496 22.711 29.2764 22.711 29.0487C22.711 28.8211 22.711 28.6389 22.711 28.4113ZM29.5377 28.73C29.4467 29.0032 29.3557 29.2764 29.2646 29.504C29.2646 29.5496 29.2646 29.6406 29.3101 29.6406L29.5377 29.8683C29.6742 29.5951 29.7653 29.2764 29.8563 29.0032C29.8563 28.9577 29.8563 28.8666 29.8108 28.8211L29.5377 28.73ZM13.1537 28.8666C13.1081 28.9121 13.0626 28.9577 13.1081 29.0487C13.1992 29.3219 13.2902 29.6406 13.4267 29.9138L13.6543 29.6862C13.6998 29.6406 13.6998 29.5951 13.6998 29.5496C13.6088 29.2764 13.4722 29.0032 13.4267 28.7755L13.1537 28.8666ZM27.5807 28.9121C27.4442 29.3219 27.3987 29.6862 27.4897 30.0049C27.6262 29.8228 27.7628 29.5951 27.8538 29.3674C27.8993 29.2764 27.8993 29.1853 27.8083 29.1398L27.5807 28.9121ZM15.0651 29.1398C15.0196 29.1853 15.0196 29.2764 15.0196 29.3674C15.1106 29.5951 15.2472 29.7772 15.3837 30.0049C15.4292 29.6862 15.4292 29.2764 15.2927 28.9121L15.0651 29.1398ZM24.3039 28.1836C24.3949 28.3658 25.1686 29.9138 26.2609 30.2325L26.3519 29.9594L26.4884 30.0049C26.5795 30.0049 26.6705 30.0049 26.716 30.0049C26.8525 30.0049 26.9891 29.9594 27.1256 29.9594C27.1256 29.8683 27.1256 29.7772 27.1256 29.7317C27.1256 29.6862 27.1256 29.6406 27.1256 29.5951V29.5496C27.1256 29.413 27.1256 29.2764 27.1711 29.1398V29.0943L24.6225 27.6373V27.4096C24.6225 27.2275 24.5315 27.0909 24.3494 26.9998L23.8943 26.8177C23.8943 26.8177 23.8488 26.8177 23.8033 26.8177C23.7123 26.8177 23.6212 26.8177 23.4847 26.9088C23.2572 27.0454 23.1206 27.3185 23.0751 27.7283C23.0751 27.7283 23.0751 27.7739 23.1206 27.7739L23.3027 27.8649C23.3027 27.8649 23.3482 27.8194 23.4392 27.8194C23.4847 27.8194 23.4847 27.8194 23.5302 27.8194L23.5757 27.6828C23.6212 27.5917 23.7123 27.3185 24.0764 27.2275H24.1219C24.1674 27.2275 24.2584 27.273 24.2584 27.3185C24.2584 27.3641 24.2584 27.4096 24.2584 27.4096C24.2584 27.4551 24.2129 27.4551 24.1674 27.4551C23.9398 27.5007 23.8488 27.6828 23.8488 27.7739L23.8033 27.9104L24.3039 28.1836ZM16.6125 30.187C17.7503 29.8683 18.4785 28.3202 18.5695 28.1836L18.9791 27.956L18.9336 27.8194C18.9336 27.7739 18.8426 27.5917 18.615 27.5007C18.5695 27.5007 18.5695 27.4551 18.524 27.4551C18.524 27.4096 18.4785 27.3641 18.524 27.3641C18.524 27.3185 18.615 27.273 18.6605 27.273H18.706C19.0701 27.3641 19.1611 27.6373 19.2067 27.7283L19.2522 27.8649C19.2977 27.8649 19.2977 27.8649 19.3432 27.8649C19.4342 27.8649 19.4797 27.9104 19.4797 27.9104C19.4797 27.9104 19.4797 27.9104 19.5252 27.9104L19.7528 27.8194L19.7983 27.7739C19.7528 27.3641 19.6163 27.0909 19.3887 26.9543C19.2522 26.8632 19.1611 26.8632 19.0701 26.8632C19.0246 26.8632 18.9791 26.8632 18.9791 26.8632L18.4785 27.0454C18.3419 27.0909 18.2054 27.273 18.2054 27.4551V27.6828L15.6568 29.1398C15.6568 29.1398 15.6113 29.1853 15.6568 29.1853C15.7023 29.3219 15.7023 29.4585 15.7023 29.5951V29.6406C15.7023 29.6862 15.7023 29.7317 15.7023 29.7317C15.7023 29.8228 15.7023 29.8683 15.7023 29.9594C15.7933 30.0049 15.9298 30.0049 16.1119 30.0049C16.2029 30.0049 16.2939 30.0049 16.3394 30.0049L16.476 29.9594L16.6125 30.187ZM24.1219 30.4147C24.2129 30.4147 24.3494 30.4602 24.3949 30.5513L24.4404 30.5968L25.4872 30.2325C24.759 29.6862 24.2584 28.8211 24.0308 28.4113L23.4847 28.1381C23.4847 28.1381 23.4847 28.1381 23.4392 28.1381C23.3937 28.1836 23.3482 28.1836 23.2572 28.1836C23.2116 28.1836 23.1661 28.1836 23.0751 28.1381L22.9386 28.047C22.9386 28.3658 22.9386 28.6845 22.9386 29.0032C22.9386 29.4585 22.9386 29.9138 22.9386 30.4602H22.9841L23.2116 30.4147C23.2572 30.4147 23.2572 30.4147 23.3027 30.4147C23.3937 30.4147 23.4847 30.4602 23.5302 30.5057C23.7578 30.4147 23.9398 30.3691 23.9398 30.3691C24.0764 30.4147 24.1219 30.4147 24.1219 30.4147ZM18.706 30.4147C18.7515 30.4147 18.7515 30.4147 18.7971 30.4147C18.7971 30.4147 18.9791 30.4602 19.2067 30.5057V30.5513V30.5057C19.2522 30.4602 19.3432 30.4147 19.4342 30.4147C19.4797 30.4147 19.4797 30.4147 19.5252 30.4147L19.7073 30.4602C19.7073 29.9138 19.7073 29.4585 19.7073 29.0487C19.7073 28.73 19.7073 28.4113 19.7528 28.047L19.6618 28.0926C19.6163 28.1381 19.5707 28.1381 19.4797 28.1381C19.4342 28.1381 19.3432 28.1381 19.2977 28.0926L18.7515 28.3658C18.5695 28.73 18.0689 29.6406 17.2952 30.187L18.3419 30.5513L18.3875 30.5057C18.524 30.4602 18.615 30.4147 18.706 30.4147ZM28.1724 29.3674C28.0358 29.6406 27.8538 29.9594 27.6262 30.2325C27.5807 30.2781 27.5807 30.3691 27.6262 30.4147C27.6717 30.5057 27.6717 30.5513 27.7173 30.5513C27.8993 30.2325 28.1269 29.9138 28.2634 29.6406C28.3089 29.5951 28.3089 29.504 28.2179 29.413L28.1724 29.3674ZM14.61 29.4585C14.5645 29.504 14.5645 29.5951 14.5645 29.6406C14.7466 29.9594 14.9286 30.2781 15.1106 30.5513C15.1562 30.5057 15.1562 30.4602 15.2017 30.4147C15.2472 30.3691 15.2472 30.2781 15.2017 30.2325C15.0196 29.9594 14.8376 29.6406 14.6555 29.3674L14.61 29.4585ZM28.582 29.6406C28.3999 29.9594 28.2179 30.3236 27.9903 30.6423C27.9448 30.6879 27.9448 30.7789 27.9903 30.8244C28.0358 30.87 28.0358 30.961 28.0813 31.0066C28.3089 30.6879 28.4909 30.3236 28.673 29.9594C28.7185 29.9138 28.7185 29.8228 28.6275 29.7317L28.582 29.6406ZM14.1549 29.7317C14.1094 29.7772 14.1094 29.8683 14.1094 29.9594C14.2914 30.3236 14.4735 30.6423 14.701 31.0066C14.7466 30.961 14.7466 30.9155 14.7921 30.8244C14.8376 30.7789 14.7921 30.6879 14.7921 30.6423C14.5645 30.3236 14.3825 30.0049 14.2004 29.6406L14.1549 29.7317ZM13.6088 30.187C13.5633 30.2325 13.5633 30.3236 13.5633 30.3691C13.7453 30.7334 13.9274 31.0521 14.1549 31.3708C14.2004 31.2798 14.2914 31.1887 14.337 31.0066C14.337 30.961 14.337 30.9155 14.337 30.8244C14.1549 30.5057 13.9729 30.187 13.8363 29.9138L13.6088 30.187ZM29.0371 29.9594C28.9005 30.2781 28.7185 30.5968 28.5365 30.87C28.4909 30.9155 28.4909 30.961 28.5365 31.0521C28.582 31.2342 28.673 31.3253 28.7185 31.4164C28.9461 31.0976 29.1281 30.7334 29.3101 30.4147C29.3557 30.3691 29.3101 30.2781 29.2646 30.2325L29.0371 29.9594ZM20.1169 30.3691C20.1169 30.7789 20.1169 31.1887 20.1169 31.5985C20.572 31.0976 21.3912 30.4602 22.62 30.0959C22.2104 29.9594 21.8918 29.8683 21.5732 29.8683H21.5277C21.1181 29.8683 20.663 30.0504 20.1169 30.3691ZM22.711 30.4147C21.5277 30.8244 20.754 31.4619 20.3444 31.8717C20.7995 31.644 21.2091 31.5529 21.5732 31.5074H21.6187C21.9373 31.5074 22.3014 31.5985 22.711 31.7351C22.6655 31.2798 22.6655 30.8244 22.711 30.4147ZM20.1624 32.327C20.1624 32.7368 20.2079 33.1465 20.2079 33.6019C20.663 33.101 21.4367 32.4636 22.62 32.0993C22.2104 31.9627 21.8918 31.8717 21.5732 31.8717H21.5277C21.1181 31.8717 20.663 32.0538 20.1624 32.327ZM22.62 32.418C21.5732 32.7823 20.8451 33.3287 20.4355 33.8295C20.8451 33.6474 21.2091 33.5563 21.5277 33.5563H21.5732C21.8918 33.5563 22.2104 33.6018 22.5745 33.7384C22.62 33.2831 22.62 32.8733 22.62 32.418ZM12.38 34.3303C12.38 34.3303 12.4255 34.3759 12.471 34.3759H12.5165C12.653 34.3303 12.8351 34.1482 12.9716 33.8295C13.0171 33.6929 13.1081 33.5108 13.1537 33.3742L13.9274 31.6895L13.8818 31.5985C13.6998 31.3253 13.5177 31.0521 13.3812 30.7789C13.4722 31.3253 13.3357 31.9627 12.9716 32.6002C12.9261 32.6912 12.8806 32.7823 12.7896 32.8733C12.38 33.6018 12.1524 34.1027 12.38 34.3303ZM29.6742 33.3742C29.7653 33.5108 29.8108 33.6929 29.8563 33.8295C29.9928 34.1482 30.1749 34.3303 30.3114 34.3759H30.3569C30.4024 34.3759 30.4479 34.3303 30.4934 34.3303C30.721 34.1027 30.4934 33.6018 30.0383 32.8733C29.9928 32.7823 29.9018 32.6912 29.8563 32.6002C29.4922 31.9627 29.3557 31.3253 29.4467 30.7789C29.3101 31.0521 29.1281 31.3708 28.9461 31.5985L28.9005 31.6895L29.6742 33.3742ZM20.2079 34.2848C20.2534 34.9223 20.2534 35.5142 20.2989 36.1061C20.7995 35.5142 21.5277 34.7401 22.529 34.3303V34.0572C22.1649 33.9206 21.8463 33.8295 21.5277 33.8295H21.4822C21.1636 33.875 20.7085 34.0116 20.2079 34.2848ZM22.529 34.7401C21.6187 35.1499 20.9361 35.8784 20.481 36.4703C20.8451 36.2882 21.2091 36.1971 21.5277 36.1971H21.5732C21.8463 36.1971 22.1194 36.2427 22.4379 36.3337C22.4379 35.8329 22.4835 35.2865 22.529 34.7401ZM18.706 36.7435C18.7971 36.9256 18.9791 36.9712 19.0701 37.0167H19.1156C19.1156 37.0167 19.1156 37.0167 19.1156 36.9712V36.4703C19.1156 36.4703 19.1156 36.4703 19.1156 36.4248L18.8426 36.1516C18.8426 36.1516 18.8426 36.1516 18.7971 36.1516H17.9778C17.8413 36.1516 17.7048 36.1061 17.6593 35.9695C17.5682 35.8329 17.5682 35.6963 17.6138 35.6052C17.6593 35.4686 17.7503 35.332 17.8413 35.1499C18.0689 34.6946 18.433 34.6491 18.433 34.6491C18.433 34.6491 18.4785 34.6491 18.4785 34.6035V34.558L17.7503 33.5563C17.7048 33.5108 17.6593 33.4653 17.5682 33.4653C17.5227 33.4653 17.5227 33.4653 17.4772 33.4653L15.5202 34.1482C15.3837 34.4214 15.0651 35.0588 14.9741 35.7873L16.8856 34.9223H16.9311H16.9766C17.0221 34.9223 17.0221 34.9678 17.0221 35.0133L16.8401 35.9239C16.8401 36.015 16.8401 36.1516 16.9311 36.1971L17.7503 36.789C17.8868 36.8801 18.0234 36.9256 18.1599 36.9256C18.2054 36.9256 18.2509 36.9256 18.2964 36.9256C18.433 36.8801 18.524 36.8346 18.6605 36.7435L18.706 36.698V36.7435ZM25.3052 33.4653C25.2141 33.4653 25.1686 33.5108 25.1231 33.5563L24.3494 34.6035V34.6491C24.3494 34.6491 24.3494 34.6946 24.3949 34.6946C24.3949 34.6946 24.759 34.7401 24.9866 35.1954C25.0776 35.332 25.1231 35.4686 25.2141 35.6508C25.2596 35.7873 25.2596 35.9239 25.1686 36.015C25.0776 36.1516 24.9866 36.1971 24.85 36.1971H24.0308C24.0308 36.1971 24.0308 36.1971 23.9853 36.1971L23.7578 36.4248C23.7578 36.4248 23.7578 36.4248 23.7578 36.4703V36.9712V37.0167C23.7578 37.0167 23.7578 37.0167 23.8033 37.0167C23.8943 37.0167 24.1219 36.9256 24.2129 36.7435L24.2584 36.698L24.3039 36.7435C24.3949 36.8346 24.5315 36.9256 24.668 36.9256C24.7135 36.9256 24.759 36.9256 24.8045 36.9256C24.9411 36.9256 25.0776 36.8801 25.2141 36.789L26.0333 36.1971C26.1244 36.1516 26.1699 36.015 26.1244 35.9239L25.9423 35.0133C25.9423 34.9678 25.9423 34.9678 25.9878 34.9223H26.0333H26.0788L27.9903 35.7873C27.8538 35.0133 27.5807 34.3759 27.4442 34.1482L25.4872 33.4653C25.3507 33.5108 25.3052 33.4653 25.3052 33.4653ZM20.3444 36.8801C20.3899 37.2899 20.3899 37.6997 20.4355 38.0639C21.0726 37.5175 21.7098 37.1077 22.3924 36.8801V36.6524C22.0739 36.5614 21.8008 36.5158 21.5732 36.5158H21.5277C21.2091 36.5158 20.7995 36.6524 20.3444 36.8801ZM29.4467 39.7486C29.3557 39.7486 29.3101 39.7941 29.2646 39.8396C29.2191 39.8852 29.1736 39.9762 29.1736 40.0673L29.2646 40.6592C29.2646 40.6592 29.2646 40.7047 29.3101 40.7047C29.3101 40.7047 29.3557 40.7047 29.3557 40.6592C29.3557 40.6592 29.4012 40.4315 29.5377 40.3405L29.5832 40.2949V40.386C29.6287 40.5681 29.8108 40.6592 29.9928 40.6592H30.4479C30.4479 40.6592 30.4934 40.6592 30.4934 40.6137L31.2216 38.3826V38.3371C31.2216 38.3371 31.2216 38.3371 31.1761 38.3371H31.1306C31.0396 38.3371 30.3114 38.2916 30.0383 37.472C29.9473 37.1533 29.9473 36.8346 29.9473 36.4703C29.9473 36.0605 29.9928 35.6052 29.8563 35.0133V34.9223L29.9473 34.9678C30.0838 35.0133 30.2204 35.0588 30.3569 35.0588C30.721 35.0588 30.9485 34.8312 30.9485 34.8312C31.6312 34.1482 31.0396 33.1465 30.63 32.4636C30.5845 32.3725 30.4934 32.2814 30.4479 32.1904C30.0383 31.5074 29.9928 30.9155 30.2659 30.5513C30.3569 30.4147 30.5389 30.3236 30.7665 30.3236H30.8575V30.2781C30.8575 30.187 30.8575 30.0049 30.6755 29.8683L30.63 29.8228L30.6755 29.7772C30.903 29.413 31.0396 29.0943 30.9941 28.8211C30.9485 28.4568 30.721 28.3202 30.6755 28.2747L30.63 28.2292V28.2747C30.5845 28.5024 30.4479 28.6845 30.2659 28.9577C30.1749 29.0487 30.0838 29.1853 29.9928 29.3219C29.7197 29.7317 29.8563 30.0959 29.9018 30.2325V30.2781C29.5832 30.7789 29.6742 31.5074 30.0838 32.2814C30.1293 32.3725 30.1749 32.4636 30.2659 32.5546C30.721 33.3287 31.0851 34.0116 30.63 34.4214C30.5845 34.4669 30.4934 34.5125 30.3114 34.5125C30.2659 34.5125 30.2204 34.5125 30.2204 34.5125C29.9928 34.4669 29.7197 34.1938 29.5377 33.784C29.4922 33.6474 29.4012 33.4653 29.3557 33.3287L28.5365 31.5074C28.4909 31.4163 28.3999 31.2798 28.3089 31.0976L28.1269 31.3253L28.0358 31.4164C28.0358 31.4164 27.8993 31.2798 27.7628 31.0976L27.7173 31.1887L27.5807 31.0976C27.5807 31.0976 27.3076 30.8244 27.1711 30.3236C27.0801 30.3691 26.898 30.3691 26.716 30.3691C26.6705 30.3691 26.5795 30.3691 26.534 30.3691L26.3974 30.6879H26.2609C26.2154 30.6879 26.0333 30.6879 25.7603 30.5057L24.3494 31.0066H24.3039C24.2584 31.0066 24.2129 31.0066 24.1674 30.961L24.0764 30.8244C24.0764 30.8244 24.0764 30.8244 24.0308 30.8244C24.0308 30.8244 23.8943 30.87 23.7123 30.9155V30.961C23.7123 31.0066 23.8033 31.1887 24.0308 31.2798C24.0764 31.2798 24.0764 31.3253 24.1219 31.3253C24.1219 31.3708 24.1674 31.4164 24.1219 31.4164C24.1219 31.4619 24.0308 31.5074 23.9853 31.5074L24.1219 31.4164C23.7578 31.3253 23.6668 31.0521 23.6212 30.961L23.5757 30.87C23.4847 30.87 23.4392 30.8244 23.4392 30.8244C23.4392 30.8244 23.4392 30.8244 23.3937 30.8244L23.1661 30.87C23.1661 30.87 23.1206 30.87 23.1206 30.9155C23.1206 31.3253 23.2116 31.5985 23.3937 31.7806C23.5302 31.9172 23.7123 31.9172 23.7578 31.9172H23.8033L26.1699 31.7351V31.7806C26.3519 32.2814 26.625 32.7823 27.0346 33.2376C27.2621 33.5108 27.4442 33.8295 27.6262 34.1482C27.6262 34.1938 27.7173 34.3759 27.7173 34.3759C27.9448 34.8312 28.1724 35.4686 28.2179 36.2427V36.2882C28.3089 37.1077 28.3544 38.0184 28.2634 39.0201C28.2634 39.0201 28.2634 39.0656 28.3089 39.0656L28.8095 39.2477C28.8095 39.2477 28.8095 39.2477 28.8095 39.2022C28.8095 39.2022 28.855 38.8835 29.0371 38.7469C29.0826 38.7013 29.1281 38.7013 29.2191 38.7013C29.2646 38.7013 29.3101 38.7013 29.3557 38.7013C29.5832 38.7924 29.8563 38.8379 30.1293 38.9745C30.1749 38.9745 30.2204 39.0201 30.2204 39.0656C30.2204 39.1111 30.2659 39.1567 30.2204 39.2022L29.9473 39.9307L29.3557 39.7941C29.4922 39.7486 29.4467 39.7486 29.4467 39.7486ZM13.3357 40.3405C13.4722 40.4771 13.5177 40.6592 13.5177 40.6592C13.5177 40.6592 13.5177 40.7047 13.5633 40.7047C13.5633 40.7047 13.6088 40.7047 13.6088 40.6592L13.6998 40.0673C13.6998 39.9762 13.6998 39.8852 13.6088 39.8396C13.5633 39.7941 13.4722 39.7486 13.4267 39.7486H13.3812L12.7896 39.8852L12.5165 39.1567C12.5165 39.1111 12.5165 39.0656 12.5165 39.0201C12.5165 38.9745 12.562 38.929 12.6075 38.929C12.8806 38.8379 13.1537 38.7469 13.3812 38.6558C13.4267 38.6558 13.4722 38.6558 13.5177 38.6558C13.5633 38.6558 13.6543 38.6558 13.6998 38.7013C13.8818 38.8379 13.9274 39.1567 13.9274 39.1567V39.2022C13.9274 39.2022 13.9274 39.2022 13.9729 39.2022L14.519 39.0201L14.5645 38.9745C14.4735 37.9728 14.519 37.0622 14.61 36.2427V36.1971C14.6555 35.4231 14.9286 34.7401 15.1562 34.2848C15.1562 34.2848 15.2017 34.1482 15.2472 34.1027C15.4292 33.7384 15.6113 33.4653 15.8388 33.1921C16.2484 32.7368 16.5215 32.2359 16.7035 31.7351V31.6895L19.0701 31.8717C19.1156 31.8717 19.2977 31.8717 19.4342 31.7351C19.6163 31.5529 19.7073 31.2798 19.7073 30.87C19.7073 30.87 19.7073 30.8244 19.6618 30.8244L19.4342 30.7789H19.3887C19.3887 30.7789 19.3432 30.8244 19.2522 30.8244V30.961C19.2067 31.0521 19.1156 31.3253 18.7515 31.4164H18.706C18.6605 31.4164 18.5695 31.3708 18.5695 31.3253C18.5695 31.2798 18.5695 31.2342 18.5695 31.2342C18.5695 31.1887 18.615 31.1887 18.6605 31.1887C18.8881 31.1432 18.9791 30.961 18.9791 30.87V30.8244C18.7971 30.7789 18.706 30.7334 18.706 30.7334H18.6605L18.5695 30.87C18.524 30.9155 18.4785 30.9155 18.433 30.9155H18.3875L16.9766 30.4147C16.7035 30.5513 16.5215 30.5968 16.476 30.5968H16.3394L16.2029 30.2781C16.1574 30.2781 16.0664 30.2781 16.0209 30.2781C15.8388 30.2781 15.7023 30.2325 15.5658 30.2325C15.4292 30.7334 15.1562 31.0066 15.1562 31.0066L15.0196 31.0976L14.9741 31.0066C14.8831 31.2342 14.7466 31.3253 14.701 31.3253L14.5645 31.4164V31.2798C14.4735 31.4619 14.3825 31.5985 14.337 31.6895L13.5177 33.5108C13.4267 33.6474 13.3812 33.8295 13.3357 33.9661C13.1537 34.3759 12.8806 34.6035 12.653 34.6946C12.6075 34.6946 12.562 34.6946 12.562 34.6946C12.38 34.6946 12.2889 34.6035 12.2434 34.6035C11.7883 34.1482 12.1524 33.5108 12.6075 32.7368C12.653 32.6457 12.7441 32.5546 12.7896 32.4636C13.2447 31.6895 13.2902 30.961 12.9716 30.4602V30.4147C13.0171 30.2781 13.1537 29.9138 12.8806 29.504C12.7896 29.3674 12.6985 29.2309 12.6075 29.1398C12.4255 28.9121 12.2889 28.73 12.2434 28.4568V28.4113L12.1979 28.4568C12.1979 28.4568 11.9704 28.6389 11.8793 29.0032C11.8338 29.2764 11.9249 29.6406 12.1979 29.9594L12.2434 30.0049L12.1979 30.0504C12.0159 30.1415 11.9704 30.3236 12.0159 30.4602V30.5057H12.1069C12.3345 30.5057 12.5165 30.5968 12.6075 30.7334C12.8806 31.0976 12.7896 31.6895 12.4255 32.3725C12.38 32.4636 12.3345 32.5546 12.2434 32.6457C11.8338 33.3287 11.2422 34.3303 11.9249 35.0133C11.9249 35.0133 12.1524 35.241 12.5165 35.241C12.653 35.241 12.7896 35.1954 12.9261 35.1499L13.0171 35.1044V35.1954C12.9261 35.7873 12.9261 36.2427 12.9261 36.6524C12.9261 37.0167 12.9716 37.3354 12.8351 37.6541C12.5165 38.5192 11.7428 38.5192 11.6973 38.5192H11.6518V38.5647L12.38 40.7958C12.38 40.7958 12.38 40.8413 12.4255 40.8413H12.8806C13.0626 40.8413 13.1992 40.7047 13.2902 40.5681V40.4771L13.3357 40.3405ZM30.4479 27.8194L30.8575 28.0926C30.903 28.1381 31.2216 28.3658 31.3126 28.8211C31.3582 29.1398 31.2671 29.4585 31.0851 29.8228C31.1761 29.9594 31.2216 30.1415 31.2216 30.3236L31.1761 30.6423H30.812C30.6755 30.6423 30.5845 30.6879 30.5389 30.7334C30.3569 30.961 30.4479 31.4619 30.7665 32.0083C30.812 32.0993 30.8575 32.1904 30.903 32.2814C31.3581 33.0099 32.0408 34.1938 31.1761 35.0588C31.1761 35.0588 30.8575 35.3776 30.3569 35.3776C30.3114 35.3776 30.2659 35.3776 30.2659 35.3776C30.3114 35.7873 30.3114 36.1516 30.2659 36.4703C30.2659 36.8346 30.2204 37.1077 30.3114 37.3809C30.5389 37.9728 31.0396 38.0184 31.1306 38.0184H31.1761H31.2216C31.2671 38.0184 31.3581 38.0639 31.4037 38.155C31.4947 38.246 31.4947 38.3826 31.4492 38.4737L30.721 40.7047C30.6755 40.8413 30.5389 40.9324 30.3569 40.9324H29.9018C29.7653 40.9324 29.6287 40.8868 29.5377 40.8413C29.4922 40.9324 29.3557 41.0234 29.2191 41.0234C29.0371 41.0234 28.9005 40.8868 28.855 40.7047L28.764 40.1128C28.7185 39.9307 28.8095 39.703 28.9461 39.5664C29.0371 39.4754 29.2191 39.3843 29.3557 39.3843C29.4012 39.3843 29.4467 39.3843 29.4922 39.3843L29.8108 39.4298L29.9473 39.1111C29.7197 39.0201 29.4922 38.9745 29.3101 38.8835C29.3101 38.8835 29.3101 38.8835 29.2646 38.8835C29.2191 38.8835 29.1736 39.0201 29.1736 39.1111C29.1736 39.2022 29.0826 39.2932 28.9916 39.3843C28.9461 39.4298 28.855 39.4298 28.8095 39.4298C28.764 39.4298 28.7185 39.4298 28.673 39.4298L28.2179 39.2933C28.0358 39.2477 27.9448 39.0656 27.9903 38.929C28.0813 37.9728 28.0358 37.0622 27.9448 36.2882V36.2427L26.3064 35.4686L26.3974 35.8784C26.4429 36.1061 26.3519 36.3337 26.1699 36.4703L25.3507 37.0622C25.1686 37.1988 24.9866 37.2443 24.759 37.2443C24.668 37.2443 24.6225 37.2443 24.5315 37.1988C24.4404 37.1988 24.3494 37.1533 24.2584 37.1077C24.1219 37.1988 23.9853 37.2443 23.8488 37.2899H23.8033C23.7123 37.2899 23.6212 37.2443 23.5302 37.1988C23.4392 37.1077 23.3937 37.0167 23.3937 36.9256V36.4248C23.3937 36.3337 23.4392 36.2427 23.4847 36.1516L23.7578 35.8784C23.8033 35.8329 23.8943 35.7873 24.0308 35.7873H24.85C24.8956 35.7873 24.8956 35.7873 24.8956 35.7418C24.8956 35.6963 24.8956 35.6963 24.8956 35.6508C24.85 35.5142 24.759 35.3776 24.668 35.241C24.5315 34.9678 24.3494 34.9223 24.3494 34.9223C24.2129 34.9223 24.0764 34.8312 24.0308 34.6946C23.9853 34.558 23.9853 34.4214 24.0764 34.3303L24.85 33.3287C24.9411 33.1921 25.1231 33.101 25.3052 33.101C25.3507 33.101 25.4417 33.101 25.4872 33.1465L27.0801 33.7384C26.9891 33.6018 26.898 33.5108 26.807 33.3742C26.4429 32.9189 26.1699 32.4636 25.9423 32.0083L23.8033 32.1448H23.7578C23.6668 32.1448 23.3937 32.1448 23.1661 31.9172C23.0751 31.8261 23.0296 31.7806 22.9841 31.644C22.8931 34.558 22.6655 37.6997 22.529 39.3843V39.4298L22.2104 39.3843V39.3388C22.2559 38.7469 22.3014 38.0184 22.3924 37.1988C21.7553 37.4265 21.1181 37.8362 20.481 38.4282C20.481 38.7469 20.5265 39.3843 20.5265 39.3843L20.2079 39.4298V39.3843C20.0714 37.7452 19.8893 34.6035 19.7983 31.7351C19.7528 31.7806 19.7073 31.8717 19.6618 31.9172C19.4342 32.1448 19.1611 32.1448 19.0701 32.1448H19.0246L16.8401 32.0083C16.658 32.4636 16.3394 32.9189 16.0209 33.3742C15.9298 33.4653 15.8388 33.6018 15.7478 33.7384L17.3407 33.1465C17.3862 33.1465 17.4772 33.101 17.5227 33.101C17.7048 33.101 17.8413 33.1921 17.9778 33.3287L18.7515 34.3303C18.8426 34.4214 18.8426 34.6035 18.7971 34.6946C18.7515 34.8312 18.615 34.8767 18.4785 34.9223C18.433 34.9223 18.2964 34.9678 18.1599 35.241C18.0689 35.3776 18.0234 35.5142 17.9323 35.6508C17.9323 35.6963 17.9323 35.6963 17.9323 35.7418C17.9323 35.7873 17.9778 35.7873 17.9778 35.7873H18.7971C18.8881 35.7873 18.9791 35.8329 19.0701 35.8784L19.3432 36.1516C19.4342 36.2427 19.4342 36.3337 19.4342 36.4248V36.9256C19.4342 37.0167 19.3887 37.1533 19.2977 37.1988C19.2522 37.2899 19.1611 37.3354 19.1156 37.3354H19.0701C18.9336 37.3354 18.7971 37.2443 18.6605 37.1533C18.5695 37.1988 18.4785 37.2443 18.3875 37.2443C18.2964 37.2443 18.2509 37.2899 18.1599 37.2899C17.9323 37.2899 17.7503 37.2443 17.5682 37.1077L16.749 36.5158C16.567 36.3792 16.476 36.1516 16.5215 35.9239L16.6125 35.5142L14.9741 36.2882C14.8831 37.0622 14.8376 37.9728 14.9286 38.9745C14.9286 39.1567 14.8376 39.2932 14.701 39.3388L14.1094 39.4754C14.0639 39.4754 14.0184 39.4754 13.9729 39.4754C13.8818 39.4754 13.8363 39.4754 13.7908 39.4298C13.6998 39.3843 13.6543 39.2932 13.6543 39.1567C13.6543 39.0656 13.6088 38.9745 13.5633 38.929C13.5633 38.929 13.5633 38.929 13.5177 38.929C13.3357 38.9745 13.1081 39.0656 12.8806 39.1567L13.0171 39.4754L13.3357 39.4298C13.3812 39.4298 13.4267 39.4298 13.4722 39.4298C13.6088 39.4298 13.7908 39.4754 13.8818 39.612C14.0184 39.7486 14.1094 39.9307 14.0639 40.1583L13.9729 40.7502C13.9274 40.9324 13.7908 41.069 13.6088 41.069C13.4722 41.069 13.3812 41.0234 13.2902 40.8868C13.1537 40.9779 13.0626 40.9779 12.9261 40.9779H12.471C12.3345 40.9779 12.1524 40.8868 12.1069 40.7502L11.3787 38.5192C11.3332 38.4282 11.3787 38.2916 11.4242 38.2005C11.4697 38.1094 11.5608 38.0639 11.6063 38.0639H11.6518H11.7428C11.7883 38.0639 12.3345 38.0184 12.562 37.4265C12.653 37.1533 12.653 36.9256 12.6075 36.5614C12.6075 36.2882 12.562 35.9239 12.6075 35.4686C12.562 35.4686 12.5165 35.4686 12.5165 35.4686C12.0159 35.4686 11.6973 35.1499 11.6973 35.1499C10.7871 34.2848 11.5153 33.101 11.9704 32.3725C12.0159 32.2814 12.1069 32.1904 12.1524 32.0993C12.471 31.5529 12.562 31.0521 12.38 30.8244C12.3345 30.7789 12.2434 30.7334 12.1069 30.7334H11.7428L11.6973 30.4147C11.6973 30.2325 11.7428 30.0504 11.8338 29.9138C11.6518 29.5496 11.5608 29.2309 11.6063 28.9121C11.6973 28.4568 12.0159 28.1836 12.0614 28.1836L12.471 27.9104C12.471 27.9104 12.5165 28.5024 12.6985 28.6389C12.6075 28.2292 12.562 27.8649 12.562 27.6373C12.562 27.4551 12.6075 27.2275 12.6985 27.0454L12.9716 26.5445L13.0171 26.499C12.9716 26.4535 12.9716 26.4535 12.9261 26.4079C12.8806 26.3169 12.8351 26.1803 12.9261 26.0892C13.0171 25.9071 13.1992 25.7705 13.5633 25.6794H13.6088L13.8363 25.3152C13.8818 25.2241 14.0184 25.1786 14.1549 25.1786H14.2004L14.3825 25.2241L14.428 25.1786C14.4735 25.0875 14.61 25.0875 14.701 25.0875C15.6113 25.0875 16.0209 25.4062 16.2029 25.5884C16.7035 25.725 16.9766 25.8615 17.0221 25.8615C17.1586 25.9526 17.2497 26.0892 17.2497 26.2713C17.2497 26.3169 17.2042 26.4535 17.1131 26.59C17.1131 26.8177 16.9766 26.9998 16.7946 27.0909C16.9766 27.3185 16.9766 27.5917 16.8856 27.956C16.8401 28.047 16.7946 28.0926 16.749 28.1381L16.8401 28.2292L18.0234 27.5462V27.5007C18.0234 27.182 18.2054 26.9088 18.4785 26.8177L18.9791 26.59H19.0246C19.0701 26.59 19.1156 26.5445 19.2067 26.5445C19.3432 26.5445 19.5252 26.59 19.7073 26.6811C19.8438 26.7722 19.9348 26.8632 20.0259 26.9998C20.1624 24.268 20.4355 21.2629 20.572 19.6238C18.5695 20.9897 14.1094 23.9948 13.5177 24.4045L13.2447 24.5867V24.268C13.2902 22.0825 14.2459 20.3978 16.2029 19.1229C17.0221 18.5766 18.0234 18.2578 19.1611 18.2578C19.3887 18.2578 19.6618 18.2578 19.9348 18.3034C18.524 17.5293 12.38 14.2056 11.6973 13.8868L11.4242 13.7502L11.6973 13.6137C12.3345 13.2039 13.4722 12.7941 14.7921 12.7941C15.8388 12.7941 16.8401 13.0673 17.7048 13.5681C18.615 14.1145 19.2977 14.7519 19.7983 15.526C19.6618 14.9341 19.5707 14.2966 19.5707 13.6137C19.5707 10.9273 20.5265 9.78903 21.4367 8.69628L21.5732 8.51416L21.7098 8.69628C22.62 9.78903 23.5757 10.9273 23.5757 13.6137C23.5757 14.2966 23.4847 14.9796 23.3482 15.5715C23.8488 14.7519 24.5315 14.069 25.4417 13.5226C26.3064 13.0217 27.2621 12.7486 28.3544 12.7486C29.6742 12.7486 30.812 13.1583 31.4492 13.5681L31.7222 13.7047L31.4492 13.8413C30.721 14.16 24.6225 17.4838 23.2116 18.2578C23.4847 18.2123 23.7123 18.2123 23.9853 18.2123C25.1231 18.2123 26.0788 18.4855 26.9436 19.0774C28.855 20.3523 29.8563 22.0369 29.9018 24.2224V24.5411L29.6287 24.359C29.0826 23.9948 25.0776 21.2629 22.6655 19.6238C22.802 21.2629 23.0296 24.268 23.1661 26.9998C23.2572 26.8632 23.3482 26.7266 23.4847 26.6356C23.6668 26.499 23.8488 26.499 23.9853 26.499C24.0764 26.499 24.1219 26.499 24.1674 26.499H24.2129L24.7135 26.7266C24.9866 26.8632 25.1686 27.1364 25.1686 27.4096V27.4551L26.3519 28.1381L26.4429 28.047C26.3519 28.0015 26.3064 27.956 26.3064 27.8649C26.1699 27.5007 26.2154 27.2275 26.3974 26.9998C26.2154 26.9088 26.1244 26.7266 26.0788 26.499C25.9423 26.3624 25.9423 26.2258 25.9423 26.1803C25.8968 25.9981 25.9878 25.8615 26.1699 25.7705C26.2154 25.725 26.534 25.6339 26.9891 25.4973C27.1711 25.3152 27.5807 24.9965 28.4909 24.9965C28.582 24.9965 28.673 25.042 28.764 25.0875L28.8095 25.133L28.9916 25.0875H29.0371C29.1736 25.0875 29.2646 25.133 29.3557 25.2241L29.5832 25.5884H29.6287C29.9928 25.6794 30.1749 25.816 30.2659 25.9981C30.3114 26.0892 30.3114 26.2258 30.2659 26.3169C30.2659 26.3624 30.2204 26.3624 30.1749 26.4079L30.2204 26.4534L30.4934 26.9543C30.5845 27.1364 30.63 27.3185 30.63 27.5462C30.63 27.7739 30.5845 28.1381 30.4934 28.5479C30.4479 28.1381 30.4479 27.8194 30.4479 27.8194Z" fill="white"></path>
<path d="M27.9013 25.9984C27.7648 25.9984 27.6282 25.9073 27.6282 25.8618L27.5827 25.8163C27.5827 25.7707 27.5372 25.7707 27.5827 25.7252C27.6282 25.6797 27.6738 25.6797 27.7193 25.6797H27.9923C28.1289 25.6797 28.2654 25.7707 28.2654 25.8163L28.3109 25.8618C28.3109 25.9073 28.3564 25.9073 28.3109 25.9529C28.2654 25.9984 28.2199 25.9984 28.1744 25.9984H27.9013Z" fill="white"></path>
<path d="M27.67 25.8162C27.67 25.8162 27.761 25.9072 27.8975 25.9072H27.943H28.0796H28.1706C28.3071 25.9072 28.2616 25.8162 28.2616 25.8162H28.2161C28.2161 25.8162 28.1251 25.7251 27.9886 25.7251H27.943H27.8065H27.7155C27.579 25.7251 27.6245 25.8162 27.6245 25.8162H27.67Z" fill="white"></path>
</g>
<defs>
<clipPath id="clip0_901_540">
<rect fill="white" height="54" width="146"></rect>
</clipPath>
</defs>
</svg>